<svg width="28" height="28" viewBox="0 0 28 28" fill="none" xmlns="http://www.w3.org/2000/svg">
<g id="fi_135715" clip-path="url(#clip0_15_509)">
<g id="Group">
<path id="Vector" d="M21.148 13.6543C21.9295 13.8397 22.7836 13.8356 23.6946 13.4512C25.2607 12.7906 26.3742 11.2885 26.409 9.58896C26.4483 7.68531 25.2405 6.06182 23.5485 5.46825C23.4296 3.73995 21.9935 2.37444 20.2355 2.37444C20.2304 2.37444 20.2254 2.37494 20.2204 2.37494C20.2516 2.11343 20.234 1.8368 20.1493 1.54808C19.9115 0.736833 19.1985 0.114544 18.359 0.0147762C17.6707 -0.0668521 17.0389 0.179544 16.596 0.617414C16.1757 0.237994 15.6235 0.000163692 15.0113 0.000163692C13.6997 0.000163692 12.6365 1.06335 12.6365 2.37494C12.6365 2.37897 12.6375 2.383 12.6375 2.38703C11.0432 2.50796 9.78656 3.8372 9.78656 5.4622C9.78656 5.71061 9.81881 5.95096 9.87424 6.18224C7.97663 6.26135 6.46147 7.81985 6.46147 9.7366C6.46147 10.3861 6.63783 10.9928 6.94167 11.5173C6.35868 11.9965 5.98682 12.7231 5.98682 13.5363C5.98682 14.6736 6.71492 15.6385 7.72973 15.9973C7.59872 20.6415 9.25598 23.3816 12.4622 27.0725C12.5196 27.1385 12.5775 27.205 12.636 27.2711C12.6486 27.2852 12.6612 27.2993 12.6738 27.3134C14.007 28.8094 17.0142 27.6636 16.3672 25.767C12.9131 15.634 23.5601 17.0988 23.5601 17.0988C23.5601 17.0988 23.8644 14.0337 21.1178 13.8901C21.1213 13.8135 21.1248 13.7364 21.1284 13.6598C21.1354 13.6583 21.1409 13.6558 21.148 13.6543Z" fill="#88C057"/>
<path id="Vector_2" d="M12.6744 27.3134C12.6618 27.2993 12.6492 27.2852 12.6366 27.2711C12.5782 27.2051 12.5202 27.1391 12.4628 27.0726C9.25612 23.3817 7.59886 20.6416 7.73037 15.9973C6.71556 15.6386 5.98746 14.6736 5.98746 13.5364C5.98746 12.7226 6.35932 11.9965 6.94231 11.5173C6.63897 10.9928 6.46211 10.3861 6.46211 9.73664C6.46211 7.81988 7.97727 6.26089 9.87488 6.18228C9.81945 5.951 9.7872 5.71065 9.7872 5.46224C9.7872 4.1713 10.5813 3.06982 11.7065 2.60928C11.6319 2.3649 11.5372 2.1185 11.4127 1.87211C10.7919 0.64214 9.69953 -0.130305 8.70235 0.0319438C7.88053 0.165472 7.3056 0.836133 7.0582 1.73808C6.3689 1.274 5.60401 1.09362 4.91319 1.33699C3.43229 1.8585 2.9652 3.98789 3.81323 5.96007C3.81574 5.96612 3.81927 5.97116 3.82179 5.9772C2.21644 6.7441 1.78965 9.02415 2.80748 11.081C2.95613 11.3808 3.12896 11.6564 3.31741 11.9109C1.54426 12.644 1.07616 14.8701 2.19275 16.8156C2.5495 17.4374 3.02617 17.9493 3.55625 18.3358C3.30532 18.9359 3.35974 19.6741 3.75881 20.3554C4.29443 21.2704 5.29967 21.8136 6.24091 21.807C7.89514 25.0555 9.92476 26.3157 12.9979 27.6198C13.0302 27.6334 13.0624 27.647 13.0947 27.6601C12.9435 27.5643 12.7999 27.4545 12.6744 27.3134Z" fill="#659C35"/>
<path id="Vector_3" d="M13.8794 12.3043C13.9087 12.2398 13.9223 12.1722 13.9233 12.1057C14.2846 11.1967 14.7194 10.4339 15.1719 9.79747C17.4313 9.32785 19.1359 10.0338 19.1737 10.0499C19.2397 10.0791 19.3082 10.0922 19.3747 10.0922C19.5687 10.0922 19.7536 9.97937 19.8368 9.79092C19.9486 9.53595 19.8323 9.23867 19.5778 9.12681C19.5078 9.09657 18.1176 8.503 16.1187 8.64862C17.0952 7.63029 17.9523 7.16823 18.0803 7.10373C18.8124 6.75303 19.8821 7.20653 20.2333 7.4111C20.3135 7.45846 20.4011 7.48063 20.4883 7.48063C20.6606 7.48063 20.8289 7.39195 20.9226 7.23273C21.0637 6.99288 20.9846 6.68451 20.7443 6.54292C20.6868 6.50865 19.5541 5.85412 18.3937 5.98563C18.4929 5.57698 18.7131 5.20512 18.8255 5.05597C18.9943 4.83528 18.952 4.51934 18.7308 4.35054C18.5106 4.18175 18.1936 4.22306 18.0248 4.44477C17.9931 4.48558 17.332 5.36233 17.3335 6.3716C16.6004 6.82055 14.7063 8.18153 13.3811 10.9166C13.3095 11.0637 13.2405 11.2219 13.172 11.3807C11.7974 10.4409 12.0237 8.76905 12.0362 8.68793C12.0791 8.41382 11.8921 8.15634 11.6175 8.1125C11.3434 8.06866 11.0844 8.2561 11.0406 8.53072C10.8945 9.44526 11.1041 11.3298 12.8016 12.3421C12.4268 13.4445 12.1426 14.7607 12.0549 16.3141C12.0448 16.363 12.0428 16.4104 12.0468 16.4587C11.9944 17.5476 12.0448 18.7554 12.2202 20.0781C11.5812 19.7264 11.289 19.2119 11.2704 19.1772C11.1388 18.9328 10.8355 18.8396 10.5906 18.9686C10.3447 19.098 10.2495 19.4029 10.3795 19.6493C10.4062 19.7002 11.0093 20.8153 12.4036 21.2461C12.7669 23.2394 13.4144 25.4776 14.4614 27.9895C14.8066 27.9668 15.1427 27.8756 15.4399 27.7275C15.4384 27.7234 15.4389 27.7189 15.4374 27.7144C14.3385 25.0997 13.6754 22.7965 13.3227 20.7613C13.3206 20.7493 13.3196 20.7377 13.3171 20.7261C13.0551 19.1993 12.9699 17.8273 13.0193 16.5983C13.7247 15.3956 15.7982 15.3472 15.8194 15.3467C16.0975 15.3421 16.3197 15.1139 16.3157 14.8357C16.3117 14.5596 16.0874 14.3389 15.8123 14.3389C15.8103 14.3389 15.8083 14.3389 15.8063 14.3389C15.7241 14.3399 14.2876 14.3712 13.1478 15.0857C13.2869 14.088 13.5182 13.2042 13.8049 12.4191C13.8346 12.3844 13.8603 12.3466 13.8794 12.3043Z" fill="#659C35"/>
</g>
</g>
<defs>
<clipPath id="clip0_15_509">
<rect width="28" height="28" fill="white"/>
</clipPath>
</defs>
</svg>
