<svg width="25" height="25" viewBox="0 0 25 25" fill="none" xmlns="http://www.w3.org/2000/svg">
<g id="Icon / Apple">
<path id="Vector" fill-rule="evenodd" clip-rule="evenodd" d="M11.8457 7.06505C11.9589 7.16486 12.1099 7.21054 12.2595 7.19021C13.2606 7.00561 14.1561 6.45258 14.7695 5.64021C15.3659 4.88752 15.7151 3.96897 15.7695 3.01021C15.774 2.85133 15.7041 2.69945 15.5806 2.59945C15.4571 2.49944 15.294 2.46275 15.1395 2.50021C14.1746 2.75217 13.3116 3.29721 12.6695 4.06021C12.0594 4.79728 11.7081 5.71419 11.6695 6.67021C11.6681 6.82115 11.7324 6.96524 11.8457 7.06505ZM19.202 9.72573C18.6104 10.2809 17.6795 11.1544 17.6795 13.0102C17.6656 14.6671 18.5755 16.194 20.0395 16.9702C20.2206 17.052 20.3377 17.2315 20.3395 17.4302C20.3395 17.5002 18.2395 22.5002 15.7195 22.5002C15.1678 22.5002 14.8001 22.3263 14.3974 22.1359C13.9095 21.9052 13.37 21.6502 12.3895 21.6502C11.4231 21.6502 10.8823 21.8979 10.3846 22.1259C9.96045 22.3202 9.56766 22.5002 8.96952 22.5002C6.64952 22.5002 3.49952 17.6402 3.49952 13.2502C3.45966 12.0102 3.76797 10.7839 4.38952 9.71021C5.26612 8.22454 6.82713 7.27518 8.54952 7.18021C9.36119 7.18021 10.0256 7.41911 10.6541 7.64508C11.2181 7.84785 11.7531 8.04021 12.3395 8.04021C12.8994 8.04021 13.3512 7.86489 13.8468 7.67257C14.449 7.43894 15.1158 7.18021 16.1195 7.18021C17.9495 7.18021 19.6795 8.50021 19.6795 9.09021C19.6795 9.27768 19.4776 9.46717 19.202 9.72573Z" fill="#222222"/>
</g>
</svg>
