<svg width="24" height="25" viewBox="0 0 24 25" fill="none" xmlns="http://www.w3.org/2000/svg">
<g id="fi_2076218" clip-path="url(#clip0_273_5165)">
<path id="Vector" d="M22.5024 17.8316C24.8216 14.5777 24.4671 10.1196 21.2994 7.21569C19.852 5.88889 18.0069 5.06291 16.0137 4.83223C16.0013 4.81695 15.9886 4.80181 15.9747 4.78733C14.2407 2.98616 11.7496 1.95312 9.14006 1.95312C4.17417 1.95312 0 5.65311 0 10.3906C0 12.0516 0.515953 13.6439 1.49606 15.0191L0.126891 19.3178C0.0408281 19.588 0.125484 19.8834 0.341531 20.067C0.557953 20.2509 0.86325 20.2863 1.11548 20.158L5.27925 18.0408C6.13434 18.409 7.04109 18.6506 7.98009 18.7605C9.79144 20.6653 12.296 21.6406 14.8584 21.6406C16.1904 21.6406 17.5176 21.3692 18.7191 20.8532L22.883 22.9705C22.9838 23.0218 23.093 23.0469 23.2015 23.0469C23.676 23.0469 24.0162 22.5845 23.8716 22.1303L22.5024 17.8316ZM5.56303 16.626C5.36611 16.5325 5.13703 16.5356 4.94273 16.6344L1.97709 18.1423L2.94553 15.1017C3.01603 14.8804 2.97267 14.6385 2.82961 14.4554C1.89839 13.2634 1.40616 11.8579 1.40616 10.3906C1.40616 6.51359 4.87556 3.35938 9.14006 3.35938C10.8574 3.35938 12.5106 3.87964 13.8517 4.81653C9.33534 5.27066 5.71837 8.79819 5.71837 13.2031C5.71837 14.5732 6.06956 15.8922 6.73167 17.0739C6.3308 16.9545 5.94037 16.8052 5.56303 16.626ZM19.0558 19.4468C18.8643 19.3495 18.635 19.3436 18.4355 19.4385C17.3393 19.9592 16.1024 20.2344 14.8584 20.2344C10.5939 20.2344 7.12453 17.0802 7.12453 13.2031C7.12453 9.32609 10.5939 6.17188 14.8584 6.17188C19.1229 6.17188 22.5923 9.32609 22.5923 13.2031C22.5923 14.6704 22.1001 16.0759 21.1688 17.2679C21.0258 17.4509 20.9825 17.6928 21.0529 17.9142L22.0214 20.9548L19.0558 19.4468Z" fill="#0FB9E1"/>
<path id="Vector_2" d="M11.999 13.9062C12.3873 13.9062 12.7021 13.5915 12.7021 13.2031C12.7021 12.8148 12.3873 12.5 11.999 12.5C11.6107 12.5 11.2959 12.8148 11.2959 13.2031C11.2959 13.5915 11.6107 13.9062 11.999 13.9062Z" fill="#0FB9E1"/>
<path id="Vector_3" d="M14.8115 13.9062C15.1998 13.9062 15.5146 13.5915 15.5146 13.2031C15.5146 12.8148 15.1998 12.5 14.8115 12.5C14.4232 12.5 14.1084 12.8148 14.1084 13.2031C14.1084 13.5915 14.4232 13.9062 14.8115 13.9062Z" fill="#0FB9E1"/>
<path id="Vector_4" d="M17.624 13.9062C18.0123 13.9062 18.3271 13.5915 18.3271 13.2031C18.3271 12.8148 18.0123 12.5 17.624 12.5C17.2357 12.5 16.9209 12.8148 16.9209 13.2031C16.9209 13.5915 17.2357 13.9062 17.624 13.9062Z" fill="#0FB9E1"/>
</g>
<defs>
<clipPath id="clip0_273_5165">
<rect width="24" height="24" fill="white" transform="translate(0 0.5)"/>
</clipPath>
</defs>
</svg>
