<svg width="290" height="290" viewBox="0 0 290 290" fill="none" xmlns="http://www.w3.org/2000/svg">
<path fill-rule="evenodd" clip-rule="evenodd" d="M213.841 69.1027C227.644 69.1554 239.023 57.4245 239.023 43.7215C239.023 27.1722 219.76 5.66406 213.841 5.66406C207.922 5.66406 188.66 27.1722 188.66 43.7215C188.661 57.4245 200.04 69.1554 213.841 69.1027Z" fill="#ED6538"/>
<path fill-rule="evenodd" clip-rule="evenodd" d="M192.98 57.7734C190.258 53.71 188.661 48.8537 188.661 43.7215C188.661 40.9512 189.201 38.0415 190.127 35.1172H188.961H28.3203C15.8594 35.1172 5.66406 45.3125 5.66406 57.7734V239.023C5.66406 251.485 15.8594 261.68 28.3203 261.68H127.535L138.434 280.556C141.411 285.696 148.798 285.526 151.632 280.467L162.478 261.68H261.68C274.141 261.68 284.337 251.485 284.337 239.023V57.7734C284.337 45.3125 274.141 35.1172 261.68 35.1172H237.556C238.484 38.0415 239.023 40.9512 239.023 43.7215C239.023 48.8542 237.427 53.71 234.705 57.7734H235.873H261.68V239.023H28.3203V57.7734H191.918H192.98Z" fill="#CDCDCD"/>
<path fill-rule="evenodd" clip-rule="evenodd" d="M191.918 57.7734H28.3203V239.023H261.68V57.7734H235.873H234.705C230.159 64.559 222.474 69.1355 213.842 69.1027C205.21 69.1355 197.525 64.559 192.98 57.7734H191.918Z" fill="#F5E1B8"/>
<path d="M261.68 29.4531H241.519C239.052 23.5166 235.646 18.39 233.191 15.0992C230.548 11.5575 221.342 0 213.842 0C206.341 0 197.135 11.5575 194.492 15.0998C192.037 18.39 188.631 23.5166 186.164 29.4536H28.3203C12.7045 29.4531 0 42.1575 0 57.7733V239.023C0 254.639 12.7045 267.343 28.3203 267.343H124.265L133.532 283.394C135.93 287.536 140.206 290 144.984 290H145.085C149.84 289.965 154.229 287.388 156.552 283.271L165.748 267.343H261.68C277.296 267.343 290 254.639 290 239.023V57.7733C290 42.1575 277.296 29.4531 261.68 29.4531ZM213.842 11.5173C218.897 14.1352 233.359 31.1404 233.359 43.7214C233.359 48.8768 231.2 53.983 227.438 57.732C223.741 61.4142 218.949 63.4391 213.892 63.4391C213.868 63.4391 213.844 63.4391 213.82 63.4391C213.796 63.4391 213.773 63.4391 213.749 63.4391C208.735 63.4391 203.942 61.4136 200.246 57.7314C196.483 53.9824 194.325 48.8762 194.325 43.7214C194.325 31.1404 208.787 14.1352 213.842 11.5173ZM278.672 239.023C278.672 248.392 271.049 256.015 261.68 256.015H162.478C160.455 256.015 158.584 257.095 157.573 258.847L146.727 277.634C146.714 277.656 146.702 277.677 146.69 277.699C146.203 278.57 145.349 278.67 145.004 278.672C144.506 278.687 143.797 278.513 143.339 277.724L132.44 258.847C131.429 257.095 129.559 256.015 127.535 256.015H28.3203C18.9508 256.015 11.3281 248.392 11.3281 239.023V57.7733C11.3281 48.4039 18.9508 40.7812 28.3203 40.7812H183.148C183.049 41.7577 182.996 42.7392 182.996 43.7208C182.996 46.5596 183.407 49.3849 184.189 52.1093H28.3203C25.192 52.1093 22.6562 54.6451 22.6562 57.7733V239.023C22.6562 242.151 25.192 244.687 28.3203 244.687H119.51C122.639 244.687 125.174 242.151 125.174 239.023C125.174 235.895 122.639 233.359 119.51 233.359H33.9843V63.4374H190.145C190.806 64.2422 191.508 65.0171 192.251 65.7568C198.087 71.5698 205.716 74.7666 213.706 74.7666H213.935C221.967 74.7666 229.597 71.5693 235.433 65.7568C236.175 65.0171 236.878 64.2422 237.539 63.4374H256.016V233.359H170.486C167.359 233.359 164.822 235.895 164.822 239.023C164.822 242.151 167.359 244.687 170.486 244.687H261.68C264.807 244.687 267.344 242.151 267.344 239.023V57.7733C267.344 54.6451 264.807 52.1093 261.68 52.1093H243.494C244.277 49.3849 244.687 46.5602 244.687 43.7208C244.687 42.7387 244.634 41.7577 244.536 40.7812H261.68C271.049 40.7812 278.672 48.4039 278.672 57.7733V239.023Z" fill="#400F5F"/>
<path d="M168.08 168.424C161.915 162.26 153.719 158.865 145 158.865C136.281 158.865 128.085 162.26 121.921 168.424C119.709 170.636 119.709 174.223 121.921 176.435C123.027 177.541 124.476 178.094 125.926 178.094C127.375 178.094 128.825 177.541 129.931 176.435C133.956 172.41 139.308 170.193 144.999 170.193C150.692 170.193 156.044 172.41 160.069 176.435C162.281 178.647 165.867 178.647 168.079 176.435C170.292 174.223 170.292 170.637 168.08 168.424Z" fill="#5A2979"/>
<path d="M117.853 118.481C115.642 116.269 112.055 116.269 109.843 118.481L105.352 122.972L100.861 118.481C98.6494 116.269 95.0629 116.269 92.8505 118.481C90.6381 120.693 90.6387 124.28 92.8505 126.492L97.3409 130.982L92.8505 135.473C90.6387 137.685 90.6387 141.271 92.8505 143.484C93.9567 144.59 95.4061 145.143 96.8555 145.143C98.305 145.143 99.755 144.59 100.861 143.484L105.351 138.993L109.842 143.484C110.948 144.59 112.397 145.143 113.847 145.143C115.296 145.143 116.746 144.59 117.852 143.484C120.063 141.272 120.063 137.685 117.852 135.473L113.361 130.982L117.852 126.492C120.065 124.279 120.065 120.692 117.853 118.481Z" fill="#5A2979"/>
<path d="M172.147 143.483C173.253 144.589 174.703 145.142 176.152 145.142C177.602 145.142 179.051 144.589 180.157 143.483L184.648 138.992L189.139 143.483C190.246 144.589 191.695 145.142 193.145 145.142C194.594 145.142 196.043 144.589 197.15 143.483C199.361 141.271 199.361 137.685 197.15 135.472L192.659 130.982L197.15 126.491C199.361 124.28 199.361 120.693 197.15 118.481C194.938 116.269 191.352 116.269 189.139 118.481L184.648 122.972L180.157 118.481C177.944 116.269 174.359 116.269 172.146 118.481C169.934 120.693 169.934 124.279 172.146 126.491L176.637 130.982L172.146 135.472C169.935 137.685 169.935 141.271 172.147 143.483Z" fill="#5A2979"/>
<path d="M145.001 233.359H144.997C141.868 233.359 139.335 235.895 139.335 239.023C139.335 242.151 141.872 244.687 145.001 244.687C148.128 244.687 150.665 242.151 150.665 239.023C150.665 235.895 148.129 233.359 145.001 233.359Z" fill="black"/>
</svg>
