<svg width="30" height="26" viewBox="0 0 30 26" fill="none" xmlns="http://www.w3.org/2000/svg">
<g id="Group 1">
<path id="Vector" d="M26.6724 11.3332C26.6724 9.52451 28.1143 8.06088 29.9105 8.0092C29.8047 4.48683 29.648 1.40454 29.648 1.40454C16.2486 2.50893 2.74589 5.24782 2.74589 5.24782C0.953031 5.60289 0.593793 5.95796 0.235387 7.37574C0.235387 7.37574 -0.482257 10.2121 0.593793 16.2409C1.66984 22.2696 5.62564 24.7526 7.4085 24.7526C7.4085 24.7526 22.0073 26.127 29.648 25.1543C29.648 25.1543 29.9497 19.4448 29.9997 14.6664C28.161 14.6622 26.6724 13.1719 26.6724 11.3332Z" fill="#FFE57F"/>
<path id="Vector_2" d="M7.56422 23.1298L7.48587 23.1222H7.40752C6.57902 23.1222 3.17417 21.3319 2.21481 15.9566C1.23128 10.4447 1.82973 7.78249 1.83307 7.76916C1.95809 7.27322 2.03061 7.14903 2.03311 7.1407C2.07145 7.11236 2.26149 7.004 3.07582 6.84397C3.20334 6.81813 15.4992 4.34013 28.08 3.1774L29.7245 3.0457C29.6795 2.038 29.647 1.40454 29.647 1.40454C16.2476 2.50893 2.74492 5.24782 2.74492 5.24782C0.952055 5.60289 0.592816 5.95796 0.234411 7.37574C0.234411 7.37574 -0.483234 10.2121 0.592816 16.2409C1.66887 22.2696 5.6255 24.7526 7.40836 24.7526C7.40836 24.7526 15.3766 25.5027 22.6198 25.5027C25.1803 25.5027 27.6516 25.4085 29.6478 25.1543C29.6478 25.1543 29.682 24.4992 29.7304 23.4481C27.73 23.7057 24.3926 23.8732 22.6206 23.8732C15.5417 23.8732 7.6434 23.1373 7.56422 23.1298Z" fill="#FFB300"/>
<path id="Vector_3" d="M0.108496 8.16171C0.169342 7.63744 0.234355 7.37572 0.234355 7.37572C0.59276 5.95793 0.951166 5.60286 2.74486 5.24779C2.74486 5.24779 16.2476 2.5089 29.6469 1.40451C29.6469 1.40451 18.4314 0.831066 15.9942 0.592684C13.557 0.354303 11.4274 0.592684 10.2272 0.966093C9.02613 1.33867 5.11117 2.96816 5.11117 2.96816C-0.26908 5.04608 0.107663 8.16171 0.108496 8.16171Z" fill="#FFA000"/>
<g id="Group">
<path id="Vector_4" d="M13.336 15.5005C15.1773 15.5005 16.67 14.0078 16.67 12.1665C16.67 10.3252 15.1773 8.83252 13.336 8.83252C11.4946 8.83252 10.002 10.3252 10.002 12.1665C10.002 14.0078 11.4946 15.5005 13.336 15.5005Z" fill="#FFC400"/>
<path id="Vector_5" d="M22.5044 8.83254C23.4251 8.83254 24.1714 8.0862 24.1714 7.16554C24.1714 6.24488 23.4251 5.49854 22.5044 5.49854C21.5837 5.49854 20.8374 6.24488 20.8374 7.16554C20.8374 8.0862 21.5837 8.83254 22.5044 8.83254Z" fill="#FFC400"/>
<path id="Vector_6" d="M8.75172 20.5017C9.90255 20.5017 10.8355 19.5688 10.8355 18.418C10.8355 17.2672 9.90255 16.3342 8.75172 16.3342C7.6009 16.3342 6.66797 17.2672 6.66797 18.418C6.66797 19.5688 7.6009 20.5017 8.75172 20.5017Z" fill="#FFC400"/>
<path id="Vector_7" d="M5.41773 13.0003C6.10823 13.0003 6.66798 12.4405 6.66798 11.75C6.66798 11.0595 6.10823 10.4998 5.41773 10.4998C4.72724 10.4998 4.16748 11.0595 4.16748 11.75C4.16748 12.4405 4.72724 13.0003 5.41773 13.0003Z" fill="#FFC400"/>
<path id="Vector_8" d="M22.5044 19.668C23.8854 19.668 25.0049 18.5485 25.0049 17.1675C25.0049 15.7865 23.8854 14.667 22.5044 14.667C21.1234 14.667 20.0039 15.7865 20.0039 17.1675C20.0039 18.5485 21.1234 19.668 22.5044 19.668Z" fill="#FFC400"/>
</g>
</g>
</svg>
