<svg width="108" height="107" viewBox="0 0 108 107" fill="none" xmlns="http://www.w3.org/2000/svg">
<g id="no-comment 1" clip-path="url(#clip0_296_4925)">
<g id="Group">
<path id="Vector" d="M6.21112 0.976338C4.90706 -0.327725 2.78712 -0.327725 1.48306 0.976338C0.179 2.2804 0.179 4.40034 1.48306 5.7044L12.2232 16.4445C4.65294 23.988 0.5 33.4508 0.5 43.4687C0.5 56.6364 7.96325 69.1822 20.5625 77.3543V96.9687C20.5625 99.4565 23.1907 101.068 25.4042 99.958L51.5658 86.8773C60.955 87.5393 69.8895 85.6 77.9948 82.2228L101.789 106.017C103.093 107.321 105.213 107.321 106.517 106.017C107.821 104.713 107.821 102.593 106.517 101.289L6.21112 0.976338ZM54 80.25C53.1172 80.25 52.2211 80.2567 51.3651 80.143C50.7031 80.0627 50.0276 80.1697 49.4258 80.464L27.25 91.5585V75.5018C27.25 74.3248 26.6281 73.2348 25.6249 72.6329C13.9084 65.6177 7.1875 54.9913 7.1875 43.4687C7.1875 35.2631 10.6449 27.4522 16.9379 21.1659L72.832 77.06C66.9136 79.1331 60.5069 80.25 54 80.25Z" fill="#ED6538"/>
<path id="Vector_2" d="M28.4006 12.7263C35.9842 8.78069 44.8318 6.6875 54.0003 6.6875C79.8074 6.6875 100.813 23.1856 100.813 43.4688C100.813 53.286 95.9309 62.488 87.0566 69.3828C85.5988 70.5197 85.3312 72.6196 86.4681 74.0774C87.6184 75.5554 89.7249 75.7828 91.1561 74.6659C101.542 66.5941 107.5 55.2254 107.5 43.4688C107.5 19.5007 83.4989 0 54.0003 0C43.7618 0 33.8375 2.354 25.3043 6.80119C23.6725 7.6505 23.0305 9.67681 23.8865 11.3086C24.7425 12.9537 26.7621 13.5756 28.4006 12.7263Z" fill="#ED6538"/>
</g>
</g>
<defs>
<clipPath id="clip0_296_4925">
<rect width="107" height="107" fill="white" transform="translate(0.5)"/>
</clipPath>
</defs>
</svg>
