<svg width="24" height="24" viewBox="0 0 24 24" fill="none" xmlns="http://www.w3.org/2000/svg">
<g id="OBJECTS" clip-path="url(#clip0_635_4133)">
<path id="Vector" d="M19.1062 0.669922H4.89379C2.56101 0.669922 0.669922 2.56101 0.669922 4.89379V19.1062C0.669922 21.439 2.56101 23.3301 4.89379 23.3301H19.1062C21.439 23.3301 23.3301 21.439 23.3301 19.1062V4.89379C23.3301 2.56101 21.439 0.669922 19.1062 0.669922Z" stroke="white" stroke-width="1.5" stroke-linecap="round" stroke-linejoin="round"/>
<path id="Vector_2" d="M14.5242 7.1046H15.787V4.35791H13.8877C11.1946 4.35791 9.91843 5.95903 9.91843 8.24012V10.4006H7.81152V13.01H9.91843V19.6456H13.0805V13.01H15.1874L15.787 10.4006H13.0805V8.61862C13.0805 7.88841 13.4791 7.10125 14.5275 7.10125L14.5242 7.1046Z" fill="white"/>
</g>
<defs>
<clipPath id="clip0_635_4133">
<rect width="24" height="24" fill="white"/>
</clipPath>
</defs>
</svg>
