<svg width="21" height="21" viewBox="0 0 21 21" fill="none" xmlns="http://www.w3.org/2000/svg">
<g id="Frame" clip-path="url(#clip0_54_2948)">
<path id="Vector" d="M10.5 20.5C16.0228 20.5 20.5 16.0228 20.5 10.5C20.5 4.97715 16.0228 0.5 10.5 0.5C4.97715 0.5 0.5 4.97715 0.5 10.5C0.5 16.0228 4.97715 20.5 10.5 20.5Z" fill="#4285F4"/>
<path id="Vector_2" d="M13.0139 10.8914H11.2295V17.4285H8.52602V10.8914H7.24023V8.59398H8.52602V7.1073C8.52602 6.04416 9.03103 4.37939 11.2536 4.37939L13.2561 4.38777V6.6178H11.8031C11.5648 6.6178 11.2297 6.73688 11.2297 7.24402V8.59612H13.2501L13.0139 10.8914Z" fill="white"/>
</g>
<defs>
<clipPath id="clip0_54_2948">
<rect width="20" height="20" fill="white" transform="translate(0.5 0.5)"/>
</clipPath>
</defs>
</svg>
