<svg width="21" height="21" viewBox="0 0 21 21" fill="none" xmlns="http://www.w3.org/2000/svg">
<g id="google" clip-path="url(#clip0_54_2953)">
<path id="Path 168" d="M20.5 10.7216C20.5121 10.0342 20.4397 9.34776 20.2844 8.67725H10.7041V12.3883H16.3276C16.2211 13.039 15.9814 13.6618 15.6229 14.2194C15.2644 14.7769 14.7945 15.2577 14.2415 15.6327L14.2219 15.757L17.2512 18.0567L17.4609 18.0772C19.3883 16.3328 20.4996 13.766 20.4996 10.7216" fill="#4285F4"/>
<path id="Path 169" d="M10.7045 20.4998C13.4595 20.4998 15.7724 19.6109 17.4619 18.0775L14.2419 15.633C13.3803 16.222 12.2239 16.6332 10.7045 16.6332C9.41415 16.6258 8.15893 16.2203 7.11694 15.4744C6.07494 14.7285 5.29909 13.6799 4.89946 12.4775L4.77987 12.4875L1.63004 14.8764L1.58887 14.9886C2.4372 16.6455 3.7391 18.0384 5.34899 19.0117C6.95889 19.985 8.81331 20.5002 10.7049 20.4998" fill="#34A853"/>
<path id="Path 170" d="M4.89899 12.4777C4.6758 11.8411 4.56063 11.173 4.55807 10.5C4.56218 9.82799 4.6731 9.16075 4.88684 8.52225L4.88115 8.38968L1.69269 5.9624L1.5884 6.01101C0.872763 7.40343 0.5 8.9408 0.5 10.4999C0.5 12.0589 0.872763 13.5963 1.5884 14.9887L4.89899 12.4777Z" fill="#FBBC05"/>
<path id="Path 171" d="M10.7039 4.36687C12.1661 4.34462 13.5802 4.87827 14.6495 5.85583L17.5294 3.10021C15.6823 1.40209 13.2364 0.470359 10.7039 0.500207C8.81236 0.499766 6.95795 1.01498 5.34806 1.98823C3.73816 2.96148 2.43625 4.35441 1.58789 6.01125L4.88751 8.52249C5.29107 7.3203 6.0695 6.27255 7.11303 5.52699C8.15656 4.78143 9.41255 4.37565 10.7039 4.36687Z" fill="#EB4335"/>
</g>
<defs>
<clipPath id="clip0_54_2953">
<rect width="20" height="20" fill="white" transform="translate(0.5 0.5)"/>
</clipPath>
</defs>
</svg>
