<svg width="24" height="24" viewBox="0 0 24 24" fill="none" xmlns="http://www.w3.org/2000/svg">
<g id="OBJECTS" clip-path="url(#clip0_635_4136)">
<g id="Group">
<path id="Vector" d="M4.86077 8.71567C4.98471 8.0625 5.10194 7.40932 5.457 6.82649C6.26761 5.50339 7.53711 4.99425 8.99755 4.96075C10.9906 4.91051 12.9869 4.91386 14.9833 4.96075C16.3366 4.99425 17.5424 5.43975 18.3664 6.61211C18.8957 7.36913 19.0933 8.23333 19.1067 9.12768C19.1368 11.0437 19.1502 12.963 19.1067 14.879C19.0698 16.4231 18.5339 17.7395 17.0902 18.5233C16.4236 18.8851 15.6901 19.0425 14.9431 19.0526C12.9735 19.076 11.004 19.0961 9.03439 19.0526C7.55721 19.0191 6.27431 18.52 5.45365 17.1835C5.09859 16.604 4.98136 15.9475 4.85742 15.2943V8.71902L4.86077 8.71567ZM12.0055 6.31065C11.0274 6.31065 10.0493 6.29055 9.07124 6.314C7.54381 6.35084 6.60592 7.06431 6.3279 8.38071C6.26761 8.65873 6.22407 8.9468 6.22407 9.23151C6.21402 11.0839 6.19057 12.9362 6.22741 14.7885C6.26426 16.6308 7.19545 17.6156 8.9741 17.6826C10.9805 17.7563 12.9903 17.7496 14.9967 17.6826C16.4772 17.6324 17.3582 16.9222 17.6396 15.6427C17.6898 15.4149 17.7367 15.1804 17.74 14.946C17.7501 12.8357 17.8673 10.7221 17.6764 8.61519C17.5625 7.36578 16.7285 6.55182 15.4824 6.38099C14.3268 6.22356 13.1645 6.3341 12.0055 6.31065Z" fill="white"/>
<path id="Vector_2" d="M15.6835 12.0283C15.6768 14.018 14.0254 15.6526 11.9989 15.6761C9.96571 15.6995 8.2775 14.0214 8.2842 11.9814C8.2909 9.97503 10.0026 8.29352 12.0056 8.33371C14.0623 8.37391 15.6869 10.0085 15.6802 12.0283H15.6835ZM14.3135 12.0082C14.3135 10.7421 13.2718 9.70371 11.9922 9.69701C10.7194 9.69031 9.66089 10.732 9.65754 11.9948C9.65754 13.261 10.6993 14.2994 11.9788 14.3061C13.2517 14.3128 14.3102 13.271 14.3135 12.0082Z" fill="white"/>
<path id="Vector_3" d="M15.7838 7.3658C16.2728 7.35911 16.6882 7.76441 16.6882 8.2501C16.6882 8.71235 16.2862 9.11095 15.8139 9.12435C15.3249 9.13775 14.8995 8.73915 14.8928 8.2568C14.8827 7.77111 15.2847 7.3725 15.7871 7.3658H15.7838Z" fill="white"/>
</g>
<path id="Vector_4" d="M19.1062 0.669922H4.89379C2.56101 0.669922 0.669922 2.56101 0.669922 4.89379V19.1062C0.669922 21.439 2.56101 23.3301 4.89379 23.3301H19.1062C21.439 23.3301 23.3301 21.439 23.3301 19.1062V4.89379C23.3301 2.56101 21.439 0.669922 19.1062 0.669922Z" stroke="white" stroke-width="1.5" stroke-linecap="round" stroke-linejoin="round"/>
</g>
<defs>
<clipPath id="clip0_635_4136">
<rect width="24" height="24" fill="white"/>
</clipPath>
</defs>
</svg>
