<svg width="19" height="20" viewBox="0 0 19 20" fill="none" xmlns="http://www.w3.org/2000/svg">
<g id="MapPinLine">
<path id="Vector" d="M14.8438 17.125H11.1729C11.7895 16.5744 12.3711 15.9857 12.9141 15.3623C14.9514 13.0192 16.0312 10.5492 16.0312 8.21875C16.0312 6.48656 15.3431 4.82531 14.1183 3.60046C12.8934 2.37561 11.2322 1.6875 9.5 1.6875C7.76781 1.6875 6.10656 2.37561 4.88171 3.60046C3.65686 4.82531 2.96875 6.48656 2.96875 8.21875C2.96875 10.5492 4.04566 13.0192 6.08594 15.3623C6.62893 15.9857 7.21046 16.5744 7.82711 17.125H4.15625C3.99878 17.125 3.84776 17.1876 3.73641 17.2989C3.62506 17.4103 3.5625 17.5613 3.5625 17.7188C3.5625 17.8762 3.62506 18.0272 3.73641 18.1386C3.84776 18.2499 3.99878 18.3125 4.15625 18.3125H14.8438C15.0012 18.3125 15.1522 18.2499 15.2636 18.1386C15.3749 18.0272 15.4375 17.8762 15.4375 17.7188C15.4375 17.5613 15.3749 17.4103 15.2636 17.2989C15.1522 17.1876 15.0012 17.125 14.8438 17.125ZM4.15625 8.21875C4.15625 6.8015 4.71925 5.4423 5.7214 4.44015C6.72355 3.438 8.08275 2.875 9.5 2.875C10.9173 2.875 12.2765 3.438 13.2786 4.44015C14.2807 5.4423 14.8438 6.8015 14.8438 8.21875C14.8438 12.4663 10.7268 16.0117 9.5 16.9766C8.27316 16.0117 4.15625 12.4663 4.15625 8.21875ZM12.4688 8.21875C12.4688 7.63159 12.2946 7.05761 11.9684 6.5694C11.6422 6.08119 11.1786 5.70068 10.6361 5.47598C10.0936 5.25128 9.49671 5.19249 8.92083 5.30704C8.34494 5.42159 7.81596 5.70434 7.40078 6.11953C6.98559 6.53471 6.70284 7.06369 6.58829 7.63958C6.47374 8.21546 6.53253 8.81237 6.75723 9.35484C6.98193 9.89731 7.36244 10.361 7.85065 10.6872C8.33886 11.0134 8.91284 11.1875 9.5 11.1875C10.2874 11.1875 11.0425 10.8747 11.5992 10.318C12.156 9.76122 12.4688 9.00611 12.4688 8.21875ZM7.71875 8.21875C7.71875 7.86645 7.82322 7.52207 8.01894 7.22914C8.21467 6.93622 8.49286 6.70791 8.81835 6.57309C9.14383 6.43827 9.50198 6.403 9.84751 6.47173C10.193 6.54046 10.5104 6.7101 10.7595 6.95922C11.0086 7.20833 11.1783 7.52572 11.247 7.87125C11.3158 8.21677 11.2805 8.57492 11.1457 8.9004C11.0108 9.22589 10.7825 9.50408 10.4896 9.69981C10.1967 9.89553 9.8523 10 9.5 10C9.02758 10 8.57451 9.81233 8.24047 9.47828C7.90642 9.14424 7.71875 8.69117 7.71875 8.21875Z" fill="#0FB9E1"/>
</g>
</svg>
