<svg width="53" height="33" viewBox="0 0 53 33" fill="none" xmlns="http://www.w3.org/2000/svg">
<g id="fi_11041055" clip-path="url(#clip0_72_3439)">
<g id="Page-1">
<g id="Master">
<path id="Rectangle-1" fill-rule="evenodd" clip-rule="evenodd" d="M48.2059 3.28495e-07C45.6002 5.76039e-07 18.0123 -5.21622e-07 2.60572 3.28495e-07C1.30286 4.00153e-07 0 1.30286 0 2.60572V28.663C-1.49829e-07 31.2687 1.30286 32.5715 3.90858 32.5715C18.4431 32.5715 45.6002 32.5715 48.2059 32.5715C50.8116 32.5715 52.1145 31.2687 52.1145 28.663V3.90858C52.1145 1.30286 50.8116 3.28495e-07 48.2059 3.28495e-07Z" fill="#F7F7F7"/>
<path id="path2268" fill-rule="evenodd" clip-rule="evenodd" d="M48.7094 16.4488C48.7116 24.0176 42.6427 30.1546 35.1545 30.1566C27.6662 30.1585 21.5948 24.0246 21.5928 16.4557V16.4488C21.5908 8.88001 27.6596 2.74273 35.1475 2.74072C42.6359 2.73871 48.7074 8.8729 48.7094 16.4418V16.4488Z" fill="#DFAC16"/>
<path id="path1350" fill-rule="evenodd" clip-rule="evenodd" d="M16.8758 2.74421C9.43196 2.792 3.40479 8.91335 3.40479 16.4487C3.40479 24.0134 9.47894 30.153 16.9632 30.153C20.4758 30.153 23.6776 28.8 26.0869 26.5823C26.0867 26.5823 26.0864 26.582 26.0858 26.5817H26.0887C26.5821 26.1273 27.0422 25.637 27.4651 25.1142H24.6874C24.3164 24.6613 23.9793 24.1894 23.6765 23.7025H28.4673C28.7586 23.2312 29.0224 22.7419 29.2566 22.235H22.8855C22.6684 21.7645 22.4799 21.2833 22.3189 20.7952H29.8238C30.2761 19.4292 30.5216 17.9677 30.5216 16.4485C30.5216 15.4413 30.4135 14.4593 30.2091 13.5138H21.9209C22.0236 13.0272 22.1532 12.5465 22.3077 12.0742H29.8154C29.6475 11.5715 29.4526 11.0817 29.2308 10.6068H22.8848C23.1137 10.1125 23.3731 9.63163 23.6627 9.16732H28.45C28.1314 8.65428 27.7788 8.16413 27.3977 7.69981H24.7285C25.1412 7.20889 25.5955 6.74659 26.0887 6.31552C23.6793 4.09757 20.4765 2.74421 16.9632 2.74421C16.934 2.74421 16.905 2.74405 16.8758 2.74421Z" fill="#BF3126"/>
<g id="Group">
<path id="path4157" fill-rule="evenodd" clip-rule="evenodd" d="M21.8389 19.9378L22.0196 18.6975C21.9209 18.6975 21.7757 18.7402 21.6476 18.7402C21.1451 18.7402 21.0897 18.4701 21.1217 18.2704L21.5276 15.7397H22.2913L22.4757 14.3678H21.7556L21.9022 13.5146H20.4586C20.4268 13.5468 19.6064 18.313 19.6064 18.8933C19.6064 19.7525 20.0837 20.1351 20.7567 20.1289C21.2837 20.1244 21.6941 19.977 21.8389 19.9378Z" fill="white"/>
<path id="path4155" fill-rule="evenodd" clip-rule="evenodd" d="M22.2964 17.5733C22.2964 19.6354 23.643 20.1254 24.7902 20.1254C25.8491 20.1254 26.315 19.8861 26.315 19.8861L26.5693 18.4788C26.5693 18.4788 25.7638 18.8374 25.0364 18.8374C23.4863 18.8374 23.7577 17.6692 23.7577 17.6692H26.6914C26.6914 17.6692 26.8809 16.7237 26.8809 16.3385C26.8809 15.377 26.4074 14.2056 24.8225 14.2056C23.3709 14.2059 22.2964 15.7868 22.2964 17.5733ZM24.828 15.5124C25.6426 15.5124 25.4924 16.4378 25.4924 16.5126H23.8896C23.8896 16.417 24.0411 15.5124 24.828 15.5124Z" fill="white"/>
<path id="path4151" fill-rule="evenodd" clip-rule="evenodd" d="M33.9694 19.9374L34.2277 18.3466C34.2277 18.3466 33.5194 18.7056 33.0332 18.7056C32.0092 18.7056 31.5985 17.9152 31.5985 17.0661C31.5985 15.3435 32.4796 14.3959 33.4605 14.3959C34.196 14.3959 34.7864 14.8133 34.7864 14.8133L35.022 13.2677C35.022 13.2677 34.1466 12.9097 33.3962 12.9097C31.7297 12.9097 30.1084 14.371 30.1084 17.1154C30.1084 18.9353 30.9838 20.1372 32.7065 20.1372C33.1936 20.1374 33.9694 19.9374 33.9694 19.9374Z" fill="white"/>
<path id="path4149" fill-rule="evenodd" clip-rule="evenodd" d="M13.8992 14.228C12.9093 14.228 12.1505 14.5496 12.1505 14.5496L11.941 15.8066C11.941 15.8066 12.5673 15.5494 13.5141 15.5494C14.0516 15.5494 14.4449 15.6105 14.4449 16.052C14.4449 16.3202 14.3967 16.4192 14.3967 16.4192C14.3967 16.4192 13.9727 16.3833 13.7763 16.3833C12.5278 16.3833 11.2163 16.9219 11.2163 18.5456C11.2163 19.825 12.0767 20.1186 12.61 20.1186C13.6285 20.1186 14.0675 19.4506 14.091 19.4486L14.0434 20.0062H15.3145L15.8816 15.9877C15.8816 14.2829 14.4103 14.228 13.8992 14.228ZM14.2085 17.4999C14.236 17.7454 14.0562 18.8959 13.1871 18.8959C12.7387 18.8959 12.6221 18.5498 12.6221 18.345C12.6221 17.9457 12.8368 17.4662 13.8946 17.4662C14.1407 17.4665 14.167 17.4931 14.2085 17.4999Z" fill="white"/>
<path id="path4145" fill-rule="evenodd" clip-rule="evenodd" d="M17.2327 20.089C17.5578 20.089 19.4167 20.1726 19.4167 18.2338C19.4167 16.4212 17.696 16.7793 17.696 16.0511C17.696 15.6885 17.9765 15.5744 18.4891 15.5744C18.6926 15.5744 19.4756 15.6398 19.4756 15.6398L19.6577 14.3514C19.6577 14.3516 19.1509 14.2368 18.3258 14.2368C17.2579 14.2368 16.1739 14.6677 16.1739 16.142C16.1739 17.8126 17.9814 17.645 17.9814 18.3487C17.9814 18.8184 17.4764 18.8566 17.0873 18.8566C16.4139 18.8566 15.8074 18.6231 15.8053 18.6342L15.6128 19.9096C15.6477 19.9204 16.0217 20.089 17.2327 20.089Z" fill="white"/>
<path id="path4139" fill-rule="evenodd" clip-rule="evenodd" d="M45.9275 13.0721L45.6161 15.0252C45.6161 15.0252 45.0727 14.2665 44.2221 14.2665C42.8994 14.2665 41.7969 15.8785 41.7969 17.7306C41.7969 18.9262 42.3849 20.0977 43.5871 20.0977C44.4518 20.0977 44.9312 19.4883 44.9312 19.4883L44.8677 20.0088H46.2718L47.3746 13.0698L45.9275 13.0721ZM45.2571 16.8801C45.2571 17.6508 44.8796 18.6803 44.0969 18.6803C43.5774 18.6803 43.334 18.2395 43.334 17.5477C43.334 16.4164 43.8366 15.67 44.4709 15.67C44.9906 15.6698 45.2571 16.0307 45.2571 16.8801Z" fill="white"/>
<path id="path4133" fill-rule="evenodd" clip-rule="evenodd" d="M6.08279 20.0146L6.96159 14.776L7.09059 20.0146H8.08522L9.9406 14.776L9.11872 20.0146H10.5966L11.7348 13.0664H9.4494L8.02616 17.3296L7.95209 13.0664H5.84546L4.69092 20.0146H6.08279Z" fill="white"/>
<path id="path4131" fill-rule="evenodd" clip-rule="evenodd" d="M28.3243 20.0245C28.7445 17.6092 28.8223 15.648 29.8251 16.007C30.0006 15.0722 30.17 14.7106 30.3616 14.3149C30.3616 14.3149 30.2718 14.2959 30.0832 14.2959C29.4367 14.2959 28.9578 15.1886 28.9578 15.1886L29.0865 14.3687H27.7423L26.8418 20.0245H28.3243Z" fill="white"/>
<path id="path4149_1_" fill-rule="evenodd" clip-rule="evenodd" d="M37.3004 14.228C36.3105 14.228 35.5517 14.5496 35.5517 14.5496L35.3424 15.8066C35.3424 15.8066 35.9687 15.5494 36.9154 15.5494C37.453 15.5494 37.846 15.6105 37.846 16.052C37.846 16.3202 37.7981 16.4192 37.7981 16.4192C37.7981 16.4192 37.374 16.3833 37.1776 16.3833C35.9292 16.3833 34.6177 16.9219 34.6177 18.5456C34.6177 19.825 35.478 20.1186 36.0112 20.1186C37.0297 20.1186 37.4688 19.4506 37.492 19.4486L37.4447 20.0062H38.7159L39.2828 15.9877C39.283 14.2829 37.8115 14.228 37.3004 14.228ZM37.6101 17.4999C37.6377 17.7454 37.4577 18.8959 36.5883 18.8959C36.1399 18.8959 36.0236 18.5498 36.0236 18.345C36.0236 17.9457 36.2383 17.4662 37.296 17.4662C37.5421 17.4665 37.5682 17.4931 37.6101 17.4999Z" fill="white"/>
<path id="path4131_1_" fill-rule="evenodd" clip-rule="evenodd" d="M40.4447 20.0245C40.8651 17.6092 40.9429 15.648 41.9454 16.007C42.1212 15.0722 42.2908 14.7106 42.4822 14.3149C42.4822 14.3149 42.3924 14.2959 42.2038 14.2959C41.5573 14.2959 41.0784 15.1886 41.0784 15.1886L41.2071 14.3687H39.8629L38.9624 20.0245H40.4447Z" fill="white"/>
</g>
</g>
</g>
</g>
<defs>
<clipPath id="clip0_72_3439">
<rect width="52.1145" height="32.5715" fill="white"/>
</clipPath>
</defs>
</svg>
