<svg width="36" height="24" viewBox="0 0 36 24" fill="none" xmlns="http://www.w3.org/2000/svg">
<g id="Group 2">
<path id="Vector" d="M35.6521 9.10362C35.6717 8.49843 35.7014 7.89488 35.7427 7.29486C35.7838 6.69919 35.8314 6.10325 35.8225 5.50595C35.7917 3.42017 33.5661 1.76651 30.6422 1.15425C26.8853 0.367556 23.311 1.31725 19.5218 0.958868C16.0335 0.628789 12.3602 0.972746 9.27848 2.08788C6.19648 3.20329 3.75857 5.11547 2.89378 7.34275C2.48969 8.38305 2.13022 9.14281 1.2521 10.053C0.57534 10.7548 0.246894 11.3712 0.190838 11.9116C0.184851 11.9127 0.181586 11.913 0.181586 11.913C0.159272 11.9143 0.205532 14.4336 0.212063 15.8927C0.213696 16.3858 0.188117 18.4168 0.176688 18.5314C-0.0200533 20.4153 2.67935 21.1391 4.33138 21.4744C6.74751 21.965 9.35222 22.0893 11.8179 21.8586C14.7734 21.5848 17.1846 22.3884 19.9893 22.922C23.1339 23.5215 26.5552 22.971 29.2897 21.8782C30.0838 21.5609 30.7867 21.1641 31.5119 20.7867C32.5878 20.2278 34.0815 19.6354 34.7797 18.8642C35.6138 17.9404 35.7242 15.1689 35.6842 14.125C35.6206 12.4648 35.5977 10.7777 35.6521 9.10362Z" fill="#704138"/>
<path id="Vector_2" d="M35.8228 5.50586C35.8184 5.22449 35.7749 4.95047 35.6941 4.68624C35.1787 2.99285 33.1718 1.68342 30.6425 1.15388C26.8859 0.367734 23.3114 1.31742 19.5219 0.959045C16.0339 0.629239 12.3608 0.972651 9.27881 2.08779C6.19681 3.20347 3.75891 5.11537 2.89412 7.34293C2.49029 8.38296 2.13028 9.14244 1.25216 10.0529C0.623296 10.7052 0.29485 11.2835 0.207228 11.7961C0.200697 11.8356 0.195799 11.874 0.191445 11.9118C0.184914 11.9126 0.182193 11.9126 0.182193 11.9126C0.169404 11.9131 0.177839 12.6884 0.189268 13.628C0.189268 13.643 0.189268 13.6574 0.190084 13.6716C0.223555 15.3886 2.77003 16.0659 4.3543 16.3881C6.77016 16.8785 9.37514 17.0028 11.8403 16.7721C14.796 16.4986 17.2075 17.3019 20.0125 17.8358C23.1565 18.4355 26.5784 17.8845 29.3127 16.7922C30.1064 16.4752 30.8096 16.0782 31.535 15.7005C32.6107 15.1415 34.1044 14.5489 34.8026 13.778C35.2965 13.2305 35.5292 12.6171 35.6277 11.9904C35.6163 11.13 35.6201 10.2671 35.6435 9.40667C35.6457 9.30544 35.6486 9.20394 35.6522 9.10326C35.672 8.49861 35.7014 7.89478 35.7436 7.29503C35.7842 6.69882 35.8321 6.10343 35.8228 5.50586Z" fill="#BC7D53"/>
<path id="Vector_3" d="M35.8228 5.50586C35.8184 5.22449 35.7749 4.95047 35.6941 4.68624C35.1787 2.99285 33.1718 1.68342 30.6425 1.15388C26.8859 0.367734 23.3114 1.31742 19.5219 0.959045C16.0339 0.629239 12.3608 0.972651 9.27881 2.08779C6.19681 3.20347 3.75891 5.11537 2.89412 7.34293C2.49029 8.38296 2.13028 9.14244 1.25216 10.0529C0.623296 10.7052 0.29485 11.2835 0.207228 11.7961C0.200697 11.8356 0.195799 11.874 0.191445 11.9118C0.184914 11.9126 0.182193 11.9126 0.182193 11.9126C0.169404 11.9131 0.177839 12.6884 0.189268 13.628C0.189268 13.643 0.189268 13.6574 0.190084 13.6716C0.223555 15.3886 2.77003 16.0659 4.3543 16.3881C6.77016 16.8785 9.37514 17.0028 11.8403 16.7721C14.796 16.4986 17.2075 17.3019 20.0125 17.8358C23.1565 18.4355 26.5784 17.8845 29.3127 16.7922C30.1064 16.4752 30.8096 16.0782 31.535 15.7005C32.6107 15.1415 34.1044 14.5489 34.8026 13.778C35.2965 13.2305 35.5292 12.6171 35.6277 11.9904C35.7512 11.2054 35.6032 10.3221 35.6399 9.52422C35.6742 8.78243 35.6925 8.04254 35.7433 7.29503C35.7842 6.69882 35.8321 6.10343 35.8228 5.50586Z" fill="#BC7D53"/>
<path id="Vector_4" d="M35.7435 7.29482C35.784 6.69888 35.8319 6.10349 35.8227 5.50592C35.7919 3.42041 33.5665 1.76647 30.6426 1.15394C28.8426 0.776782 27.0844 0.799096 25.3246 0.884813C25.972 0.931889 26.6232 1.01679 27.2801 1.15394C30.2043 1.76647 32.4296 3.42041 32.4601 5.50592C32.4694 6.10349 32.4215 6.69888 32.3809 7.29482C32.3396 7.89456 32.3096 8.49867 32.2903 9.10331C32.2359 10.7774 32.2587 12.4651 32.3224 14.125C32.3624 15.1685 32.2517 17.9401 31.4179 18.8639C30.7196 19.6356 29.2255 20.228 28.1495 20.787C27.4243 21.1641 26.7217 21.5609 25.9279 21.8779C24.4479 22.4689 22.7681 22.9016 21.0391 23.0787C23.8805 23.3936 26.8567 22.8502 29.2897 21.8779C30.0843 21.5609 30.7866 21.1638 31.5121 20.787C32.588 20.228 34.0822 19.6356 34.7796 18.8639C35.6142 17.9401 35.725 15.1685 35.6842 14.125C35.6208 12.4651 35.5979 10.7774 35.6521 9.10331C35.6719 8.49867 35.7013 7.89456 35.7435 7.29482Z" fill="#633029"/>
<path id="Vector_5" d="M35.8197 5.50601C35.7974 5.11661 35.7302 4.73429 35.5797 4.37346C35.1484 3.3386 34.3315 2.67898 33.3775 2.14563C32.8098 1.82834 32.2003 1.57908 31.575 1.39159C30.7837 1.15458 30.0508 1.02097 29.2222 0.932804C28.3101 0.835658 27.3884 0.816609 26.4804 0.841372C26.1721 0.848447 25.8643 0.859876 25.556 0.874026L25.3247 0.884911C25.9721 0.931987 26.6233 1.01689 27.2801 1.15404C30.2043 1.76657 32.4294 3.4205 32.4602 5.50601C32.4776 6.70061 32.329 7.90827 32.2901 9.10341C32.236 10.7775 32.2588 12.4652 32.3222 14.1251C32.3336 14.4149 32.3331 14.8375 32.3089 15.3172C33.2412 14.8666 34.2613 14.3762 34.8026 13.7781C35.2965 13.2303 35.5291 12.6173 35.6276 11.9903C35.6908 11.5895 35.5887 11.1614 35.62 10.75C35.6619 10.2017 35.6339 9.65254 35.6521 9.10341C35.6913 7.91589 35.8872 6.68483 35.8197 5.50601Z" fill="#AF663E"/>
<path id="Vector_6" d="M6.13779 16.6805C5.7005 16.626 5.26701 16.5594 4.83843 16.4815L1.17627 10.1227C1.19831 10.0998 1.22062 10.0762 1.24348 10.0525C1.49519 9.79154 1.70499 9.54173 1.88432 9.29492L6.13779 16.6805Z" fill="#704138"/>
<path id="Vector_7" d="M11.9278 16.8515L4.86226 4.62549C4.59178 4.86849 4.34061 5.12047 4.1123 5.38007L10.7188 16.8515H11.9278Z" fill="#704138"/>
<path id="Vector_8" d="M17.9732 17.4908C17.5213 17.3915 17.0118 17.1996 16.5639 17.1117H16.5631L8.16748 2.53247C8.47878 2.39315 8.79934 2.26199 9.12697 2.14062L17.9732 17.4908Z" fill="#704138"/>
<path id="Vector_9" d="M24.1554 18.077C23.7734 18.1099 23.3886 18.1292 23.0044 18.1349L13.1807 1.1167C13.5453 1.06174 13.9137 1.0152 14.2844 0.976562L24.1554 18.077Z" fill="#704138"/>
<path id="Vector_10" d="M29.0406 17.0116C28.7187 17.1324 28.3889 17.2456 28.0512 17.3493L18.5322 0.884277C18.8607 0.902781 19.1878 0.927816 19.5132 0.958566C19.5997 0.966457 19.6863 0.974348 19.772 0.981695H19.7728L29.0406 17.0116Z" fill="#704138"/>
<path id="Vector_11" d="M33.4036 14.7636C33.1062 14.9247 32.7927 15.0784 32.4858 15.2278L24.2583 0.940837C24.6417 0.91934 25.0254 0.898387 25.408 0.879883L33.4036 14.7636Z" fill="#704138"/>
<path id="Vector_12" d="M35.6515 8.88991C35.6488 8.96066 35.6458 9.03223 35.6436 9.10298C35.6401 9.20394 35.6374 9.30571 35.6352 9.40639C35.6216 9.89811 35.6143 10.3896 35.6137 10.881L29.939 1.02734C30.17 1.06299 30.401 1.10517 30.6337 1.15388C30.8555 1.20041 31.0737 1.25266 31.2868 1.31143L35.6515 8.88991Z" fill="#704138"/>
</g>
</svg>
