<svg width="94" height="25" viewBox="0 0 94 25" fill="none" xmlns="http://www.w3.org/2000/svg">
<g id="Group 3">
<path id="Vector" d="M72.7084 6.55322H67.6459C67.3481 6.55322 67.0503 6.85101 66.9014 7.1488L64.8169 20.2516C64.8169 20.5494 64.9658 20.6983 65.2636 20.6983H67.9437C68.2415 20.6983 68.3904 20.5494 68.3904 20.2516L68.986 16.5292C68.986 16.2314 69.2838 15.9337 69.7305 15.9337H71.3683C74.7929 15.9337 76.7285 14.2958 77.1752 11.0201C77.473 9.68003 77.1752 8.48887 76.5797 7.74439C75.6863 6.99991 74.3462 6.55322 72.7084 6.55322ZM73.3039 11.4668C73.0062 13.2535 71.6661 13.2535 70.326 13.2535H69.4327L70.0282 9.82893C70.0282 9.68003 70.1771 9.53114 70.4749 9.53114H70.7727C71.6661 9.53114 72.5595 9.53114 73.0062 10.1267C73.3039 10.2756 73.3039 10.7223 73.3039 11.4668Z" fill="#139AD6"/>
<g id="Group">
<path id="Vector_2" d="M36.2284 6.55322H31.1659C30.8681 6.55322 30.5703 6.85101 30.4215 7.1488L28.3369 20.2516C28.3369 20.5494 28.4858 20.6983 28.7836 20.6983H31.1659C31.4637 20.6983 31.7615 20.4005 31.9104 20.1027L32.506 16.5292C32.506 16.2314 32.8038 15.9337 33.2505 15.9337H34.8883C38.3129 15.9337 40.2486 14.2958 40.6953 11.0201C40.9931 9.68003 40.6953 8.48887 40.0997 7.74439C39.2063 6.99991 38.0151 6.55322 36.2284 6.55322ZM36.824 11.4668C36.5262 13.2535 35.1861 13.2535 33.8461 13.2535H33.1016L33.6972 9.82893C33.6972 9.68003 33.8461 9.53114 34.1438 9.53114H34.4416C35.335 9.53114 36.2284 9.53114 36.6751 10.1267C36.824 10.2756 36.9729 10.7223 36.824 11.4668Z" fill="#263B80"/>
<path id="Vector_3" d="M51.5646 11.3178H49.1823C49.0334 11.3178 48.7356 11.4667 48.7356 11.6156L48.5867 12.3601L48.4378 12.0623C47.8422 11.3178 46.7999 11.02 45.6088 11.02C42.9286 11.02 40.5463 13.1046 40.0996 15.9336C39.8018 17.4225 40.2485 18.7626 40.993 19.656C41.7375 20.5493 42.7797 20.8471 44.1198 20.8471C46.3532 20.8471 47.5444 19.5071 47.5444 19.5071L47.3955 20.2516C47.3955 20.5493 47.5444 20.6982 47.8422 20.6982H50.0756C50.3734 20.6982 50.6712 20.4004 50.8201 20.1027L52.1602 11.7645C52.0113 11.6156 51.7135 11.3178 51.5646 11.3178ZM48.14 16.0825C47.8422 17.4225 46.7999 18.4648 45.311 18.4648C44.5665 18.4648 43.9709 18.167 43.6731 17.8692C43.3753 17.4225 43.2264 16.827 43.2264 16.0825C43.3753 14.7424 44.5665 13.7001 45.9066 13.7001C46.651 13.7001 47.0977 13.9979 47.5444 14.2957C47.9911 14.7424 48.14 15.4869 48.14 16.0825Z" fill="#263B80"/>
</g>
<path id="Vector_4" d="M87.8957 11.3178H85.5133C85.3644 11.3178 85.0666 11.4667 85.0666 11.6156L84.9177 12.3601L84.7688 12.0623C84.1733 11.3178 83.131 11.02 81.9398 11.02C79.2597 11.02 76.8774 13.1046 76.4307 15.9336C76.1329 17.4225 76.5796 18.7626 77.3241 19.656C78.0685 20.5493 79.1108 20.8471 80.4509 20.8471C82.6843 20.8471 83.8755 19.5071 83.8755 19.5071L83.7266 20.2516C83.7266 20.5493 83.8755 20.6982 84.1733 20.6982H86.4067C86.7045 20.6982 87.0023 20.4004 87.1512 20.1027L88.4912 11.7645C88.3423 11.6156 88.1934 11.3178 87.8957 11.3178ZM84.471 16.0825C84.1733 17.4225 83.131 18.4648 81.642 18.4648C80.8976 18.4648 80.302 18.167 80.0042 17.8692C79.7064 17.4225 79.5575 16.827 79.5575 16.0825C79.7064 14.7424 80.8975 13.7001 82.2376 13.7001C82.9821 13.7001 83.4288 13.9979 83.8755 14.2957C84.471 14.7424 84.6199 15.4869 84.471 16.0825Z" fill="#139AD6"/>
<path id="Vector_5" d="M64.5192 11.3179H61.9879C61.6902 11.3179 61.5413 11.4668 61.3924 11.6157L58.1167 16.6781L56.6277 11.9135C56.4788 11.6157 56.3299 11.4668 55.8832 11.4668H53.5009C53.2031 11.4668 53.0542 11.7646 53.0542 12.0623L55.7343 19.9538L53.2031 23.5273C53.0542 23.8251 53.2031 24.2718 53.5009 24.2718H55.8832C56.181 24.2718 56.3299 24.1229 56.4788 23.974L64.6681 12.2112C65.1148 11.7646 64.817 11.3179 64.5192 11.3179Z" fill="#263B80"/>
<path id="Vector_6" d="M90.7242 7.00025L88.6396 20.4009C88.6396 20.6987 88.7885 20.8475 89.0863 20.8475H91.1709C91.4687 20.8475 91.7665 20.5498 91.9153 20.252L93.9999 7.14914C93.9999 6.85135 93.851 6.70246 93.5532 6.70246H91.1709C91.022 6.55356 90.8731 6.70246 90.7242 7.00025Z" fill="#139AD6"/>
<path id="Vector_7" d="M17.3193 2.08655C16.277 0.895386 14.3414 0.299805 11.6613 0.299805H4.21647C3.76979 0.299805 3.3231 0.74649 3.1742 1.19318L0.196289 20.6985C0.196289 21.1452 0.49408 21.443 0.791872 21.443H5.40764L6.5988 14.1471V14.4449C6.7477 13.9982 7.19439 13.5515 7.64107 13.5515H9.87451C14.1925 13.5515 17.4682 11.7648 18.5105 6.85122C18.5105 6.70232 18.5105 6.55342 18.5105 6.40453C18.3616 6.40453 18.3616 6.40453 18.5105 6.40453C18.6594 4.46888 18.3616 3.27772 17.3193 2.08655Z" fill="#263B80"/>
<path id="Vector_8" d="M18.3616 6.4043C18.3616 6.55319 18.3616 6.70209 18.3616 6.85099C17.3193 11.9134 14.0436 13.5513 9.7256 13.5513H7.49216C7.04548 13.5513 6.59879 13.998 6.44989 14.4447L4.96094 23.5273C4.96094 23.8251 5.10983 24.1229 5.55652 24.1229H9.42781C9.8745 24.1229 10.3212 23.8251 10.3212 23.3784V23.2295L11.0657 18.6137V18.316C11.0657 17.8693 11.5123 17.5715 11.959 17.5715H12.5546C16.277 17.5715 19.2549 16.0825 19.9994 11.6156C20.2972 9.8289 20.1483 8.19105 19.2549 7.14878C19.106 6.85098 18.8082 6.55319 18.3616 6.4043Z" fill="#139AD6"/>
<path id="Vector_9" d="M17.3191 5.95743C17.1702 5.95743 17.0213 5.80853 16.8724 5.80853C16.7235 5.80853 16.5746 5.80853 16.4257 5.65964C15.8302 5.51074 15.2346 5.51074 14.4901 5.51074H8.68317C8.53428 5.51074 8.38538 5.51074 8.23649 5.65964C7.93869 5.80853 7.7898 6.10632 7.7898 6.40411L6.59863 14.1467V14.4445C6.74753 13.9978 7.19422 13.5511 7.6409 13.5511H9.87434C14.1923 13.5511 17.468 11.7644 18.5103 6.8508C18.5103 6.70191 18.5103 6.55301 18.6592 6.40411C18.3614 6.25522 18.2125 6.10632 17.9147 6.10632C17.468 5.95743 17.468 5.95743 17.3191 5.95743Z" fill="#232C65"/>
</g>
</svg>
