<svg width="20" height="21" viewBox="0 0 20 21" fill="none" xmlns="http://www.w3.org/2000/svg">
<g id="PencilSimple">
<path id="Vector" d="M17.5646 6.33882L14.1613 2.9347C14.0481 2.8215 13.9137 2.7317 13.7659 2.67044C13.618 2.60917 13.4595 2.57764 13.2994 2.57764C13.1393 2.57764 12.9808 2.60917 12.8329 2.67044C12.685 2.7317 12.5507 2.8215 12.4375 2.9347L3.04475 12.3282C2.93109 12.441 2.84097 12.5752 2.77964 12.7231C2.71831 12.871 2.68699 13.0296 2.68751 13.1897V16.5938C2.68751 16.9171 2.81591 17.2271 3.04447 17.4556C3.27303 17.6842 3.58302 17.8126 3.90626 17.8126H7.31038C7.47048 17.8131 7.6291 17.7818 7.77699 17.7205C7.92489 17.6591 8.05912 17.569 8.17188 17.4553L17.5646 8.06259C17.6778 7.94941 17.7676 7.81505 17.8289 7.66716C17.8902 7.51928 17.9217 7.36078 17.9217 7.2007C17.9217 7.04063 17.8902 6.88213 17.8289 6.73424C17.7676 6.58636 17.6778 6.452 17.5646 6.33882ZM7.31038 16.5938H3.90626V13.1897L10.6094 6.48659L14.0135 9.89071L7.31038 16.5938ZM14.875 9.02845L11.4709 5.62509L13.299 3.79696L16.7031 7.20032L14.875 9.02845Z" fill="white"/>
</g>
</svg>
