<svg width="28" height="28" viewBox="0 0 28 28" fill="none" xmlns="http://www.w3.org/2000/svg">
<g id="Power 1">
<path id="Vector" d="M14 2.625C11.7502 2.625 9.551 3.29213 7.68039 4.54203C5.80978 5.79193 4.35182 7.56847 3.49088 9.64698C2.62993 11.7255 2.40467 14.0126 2.84357 16.2192C3.28248 18.4257 4.36584 20.4525 5.95667 22.0433C7.54749 23.6342 9.57432 24.7175 11.7809 25.1564C13.9874 25.5953 16.2745 25.3701 18.353 24.5091C20.4315 23.6482 22.2081 22.1902 23.458 20.3196C24.7079 18.449 25.375 16.2498 25.375 14C25.375 10.9832 24.1766 8.08989 22.0433 5.95666C19.9101 3.82343 17.0168 2.625 14 2.625ZM13.125 7C13.125 6.76794 13.2172 6.54538 13.3813 6.38128C13.5454 6.21719 13.7679 6.125 14 6.125C14.2321 6.125 14.4546 6.21719 14.6187 6.38128C14.7828 6.54538 14.875 6.76794 14.875 7L14.875 14C14.875 14.2321 14.7828 14.4546 14.6187 14.6187C14.4546 14.7828 14.2321 14.875 14 14.875C13.7679 14.875 13.5454 14.7828 13.3813 14.6187C13.2172 14.4546 13.125 14.2321 13.125 14L13.125 7ZM14 22.75C12.1227 22.7502 10.2951 22.1466 8.78719 21.0284C7.27926 19.9102 6.17095 18.3366 5.62596 16.5402C5.08097 14.7437 5.12819 12.8196 5.76066 11.0521C6.39314 9.28453 7.57731 7.76726 9.13829 6.72437C9.23363 6.65695 9.34151 6.60928 9.45557 6.5842C9.56963 6.55912 9.68755 6.55712 9.80239 6.57832C9.91723 6.59953 10.0267 6.6435 10.1242 6.70766C10.2218 6.77182 10.3056 6.85487 10.3705 6.9519C10.4355 7.04893 10.4804 7.15799 10.5026 7.27265C10.5248 7.38731 10.5238 7.50524 10.4996 7.61951C10.4755 7.73377 10.4288 7.84205 10.3622 7.93796C10.2955 8.03387 10.2104 8.11548 10.1117 8.17797C8.8629 9.01218 7.91549 10.2259 7.40941 11.6399C6.90334 13.0539 6.86543 14.5931 7.3013 16.0303C7.73717 17.4675 8.62369 18.7264 9.82994 19.6211C11.0362 20.5157 12.4982 20.9987 14 20.9987C15.5018 20.9987 16.9638 20.5157 18.1701 19.6211C19.3763 18.7264 20.2628 17.4675 20.6987 16.0303C21.1346 14.5931 21.0967 13.0539 20.5906 11.6399C20.0845 10.2259 19.1371 9.01218 17.8883 8.17797C17.7896 8.11548 17.7045 8.03387 17.6379 7.93796C17.5712 7.84205 17.5245 7.73377 17.5004 7.61951C17.4762 7.50524 17.4752 7.38731 17.4974 7.27265C17.5196 7.15799 17.5645 7.04893 17.6295 6.9519C17.6944 6.85487 17.7782 6.77182 17.8758 6.70766C17.9733 6.6435 18.0828 6.59953 18.1976 6.57832C18.3125 6.55712 18.4304 6.55912 18.5444 6.5842C18.6585 6.60928 18.7664 6.65695 18.8617 6.72437C20.4227 7.76726 21.6069 9.28453 22.2393 11.0521C22.8718 12.8196 22.919 14.7437 22.3741 16.5402C21.8291 18.3366 20.7207 19.9102 19.2128 21.0284C17.7049 22.1466 15.8773 22.7502 14 22.75Z" fill="#363636"/>
</g>
</svg>
