<svg width="24" height="24" viewBox="0 0 24 24" fill="none" xmlns="http://www.w3.org/2000/svg">
<g id="OBJECTS" clip-path="url(#clip0_635_4142)">
<path id="Vector" d="M19.1799 16.2891C18.5334 15.867 18.0812 15.6325 17.7027 15.311C17.3242 14.9894 16.9792 14.6109 16.6844 14.2089C15.7801 12.9763 15.6796 12.0217 17.3812 11.469C17.5252 11.4221 17.6692 11.335 17.5654 11.134C15.8973 11.1708 15.8604 11.1307 15.8738 9.3855C15.8839 8.30023 15.9341 7.22165 15.1302 6.31391C14.065 5.11139 12.1256 4.63575 10.4341 5.22193C8.93679 5.73777 8.06924 7.04412 8.04914 8.82612C8.04579 9.25152 8.03909 9.68027 8.07593 10.1023C8.14963 10.9397 7.75772 11.2244 6.96721 11.1407C6.79303 11.1206 6.51836 10.8895 6.41452 11.2646C8.29701 12.37 8.38745 12.9629 6.98731 14.6176C6.43462 15.2708 5.70776 15.6895 4.97754 16.3025C6.09296 16.2589 6.40782 17.6055 7.43951 17.5519C8.46784 17.4983 9.31864 17.8366 10.1393 18.406C11.3083 19.2166 12.5276 19.1898 13.7401 18.4864C14.2727 18.1782 14.7852 17.6088 15.3814 17.6859C16.8754 17.8768 17.7396 16.681 19.1766 16.2824L19.1799 16.2891Z" fill="white"/>
<path id="Vector_2" d="M19.1062 0.669922H4.89379C2.56101 0.669922 0.669922 2.56101 0.669922 4.89379V19.1062C0.669922 21.439 2.56101 23.3301 4.89379 23.3301H19.1062C21.439 23.3301 23.3301 21.439 23.3301 19.1062V4.89379C23.3301 2.56101 21.439 0.669922 19.1062 0.669922Z" stroke="white" stroke-width="1.5" stroke-linecap="round" stroke-linejoin="round"/>
</g>
<defs>
<clipPath id="clip0_635_4142">
<rect width="24" height="24" fill="white"/>
</clipPath>
</defs>
</svg>
