<svg width="18" height="16" viewBox="0 0 18 16" fill="none" xmlns="http://www.w3.org/2000/svg">
<path id="Vector" d="M3.30488 14.5015C3.24785 14.7347 3.26283 14.9792 3.34794 15.2041C3.43304 15.4291 3.58446 15.6244 3.78313 15.7656C3.9818 15.9067 4.21883 15.9874 4.46439 15.9974C4.70994 16.0073 4.95303 15.9462 5.16306 15.8217M3.30488 14.5015H14.6954C14.7529 14.735 14.7381 14.9799 14.6529 15.2053C14.5678 15.4306 14.4161 15.6263 14.217 15.7676C14.0179 15.9089 13.7804 15.9894 13.5344 15.999C13.2884 16.0087 13.045 15.9469 12.835 15.8217M3.30488 14.5015L4.34977 10.1993L3.30488 14.5015ZM5.16306 15.8217L9.00015 13.5191L12.835 15.8217M5.16306 15.8217L5.06105 15.6497M5.16306 15.8217L1.06153 7.16965L4.47857 10.0463L4.57336 10.1261L4.54412 10.2465L3.49923 14.5487L3.49915 14.549C3.45174 14.7429 3.46416 14.9461 3.535 15.1334C3.60585 15.3206 3.73221 15.4841 3.89897 15.6025C4.06577 15.721 4.26532 15.7891 4.47252 15.7975C4.67957 15.8059 4.88422 15.7544 5.06068 15.6499C5.0608 15.6498 5.06093 15.6497 5.06105 15.6497M12.835 15.8217L12.9374 15.6499M12.835 15.8217L12.9379 15.6502L12.9376 15.6501C13.1141 15.7552 13.3191 15.8073 13.5266 15.7992C13.7341 15.791 13.9341 15.7231 14.1012 15.6045C14.2683 15.4859 14.3949 15.3222 14.4658 15.1346C14.5367 14.947 14.549 14.7434 14.5012 14.5493L14.501 14.5485L13.4599 10.2464L13.4308 10.126L13.5255 10.0463L16.3882 7.63635M12.9374 15.6499L16.3882 7.63635M12.9374 15.6499L9.10311 13.3476L9.00018 13.2858L8.89724 13.3476L5.06105 15.6497M12.9374 15.6499L5.06105 15.6497M16.3882 7.63635L16.3841 7.63701L16.9381 7.17033C17.0943 7.03874 17.2066 6.86568 17.2617 6.67324C17.3167 6.48083 17.3124 6.27694 17.2491 6.08687C17.1859 5.89675 17.0662 5.7283 16.9045 5.60309C16.7427 5.4779 16.5461 5.40165 16.3393 5.38452M16.3882 7.63635L16.3393 5.38452M16.3393 5.38452C16.3392 5.38451 16.3391 5.3845 16.339 5.3845M16.3393 5.38452L16.339 5.3845M16.339 5.3845L11.8594 5.03191L11.7383 5.02237L11.691 4.9105L9.96339 0.829841L9.96321 0.829419C9.88533 0.644283 9.75244 0.485117 9.58065 0.372733C9.40881 0.260315 9.20607 0.2 8.99825 0.2C8.79043 0.2 8.5877 0.260315 8.41586 0.372733C8.24407 0.485117 8.11118 0.644283 8.0333 0.829418L8.03311 0.82987L6.30478 4.91052L6.25741 5.02238L6.13631 5.03191L1.65745 5.38444C1.65723 5.38446 1.65702 5.38448 1.6568 5.3845C1.45049 5.40234 1.25462 5.47899 1.09354 5.60429C0.932338 5.72967 0.813262 5.89804 0.750386 6.08793C0.687526 6.27777 0.683399 6.48131 0.738474 6.67336C0.793548 6.86541 0.905589 7.03812 1.06141 7.16955L16.339 5.3845ZM6.12062 4.83252L7.84895 0.751869L6.12062 4.83252Z" fill="#FBC508" stroke="#363636" stroke-width="0.4"/>
</svg>
