<svg width="17" height="16" viewBox="0 0 17 16" fill="none" xmlns="http://www.w3.org/2000/svg">
<path id="Vector" d="M2.80488 14.5015C2.74785 14.7347 2.76283 14.9792 2.84794 15.2041C2.93304 15.4291 3.08446 15.6244 3.28313 15.7656C3.4818 15.9067 3.71883 15.9874 3.96439 15.9974C4.20994 16.0073 4.45303 15.9462 4.66306 15.8217M2.80488 14.5015H14.1954C14.2529 14.735 14.2381 14.9799 14.1529 15.2053C14.0678 15.4306 13.9161 15.6263 13.717 15.7676C13.5179 15.9089 13.2804 15.9894 13.0344 15.999C12.7884 16.0087 12.545 15.9469 12.335 15.8217M2.80488 14.5015L3.84977 10.1993L2.80488 14.5015ZM4.66306 15.8217L8.50015 13.5191L12.335 15.8217M4.66306 15.8217L4.56105 15.6497M4.66306 15.8217L0.56153 7.16965L3.97857 10.0463L4.07336 10.1261L4.04412 10.2465L2.99923 14.5487L2.99915 14.549C2.95174 14.7429 2.96416 14.9461 3.035 15.1334C3.10585 15.3206 3.23221 15.4841 3.39897 15.6025C3.56577 15.721 3.76532 15.7891 3.97252 15.7975C4.17957 15.8059 4.38422 15.7544 4.56068 15.6499C4.5608 15.6498 4.56093 15.6497 4.56105 15.6497M12.335 15.8217L12.4374 15.6499M12.335 15.8217L12.4379 15.6502L12.4376 15.6501C12.6141 15.7552 12.8191 15.8073 13.0266 15.7992C13.2341 15.791 13.4341 15.7231 13.6012 15.6045C13.7683 15.4859 13.8949 15.3222 13.9658 15.1346C14.0367 14.947 14.049 14.7434 14.0012 14.5493L14.001 14.5485L12.9599 10.2464L12.9308 10.126L13.0255 10.0463L15.8882 7.63635M12.4374 15.6499L15.8882 7.63635M12.4374 15.6499L8.60311 13.3476L8.50018 13.2858L8.39724 13.3476L4.56105 15.6497M12.4374 15.6499L4.56105 15.6497M15.8882 7.63635L15.8841 7.63701L16.4381 7.17033C16.5943 7.03874 16.7066 6.86568 16.7617 6.67324C16.8167 6.48083 16.8124 6.27694 16.7491 6.08687C16.6859 5.89675 16.5662 5.7283 16.4045 5.60309C16.2427 5.4779 16.0461 5.40165 15.8393 5.38452M15.8882 7.63635L15.8393 5.38452M15.8393 5.38452C15.8392 5.38451 15.8391 5.3845 15.839 5.3845M15.8393 5.38452L15.839 5.3845M15.839 5.3845L11.3594 5.03191L11.2383 5.02237L11.191 4.9105L9.46339 0.829841L9.46321 0.829419C9.38533 0.644283 9.25244 0.485117 9.08065 0.372733C8.90881 0.260315 8.70607 0.2 8.49825 0.2C8.29043 0.2 8.0877 0.260315 7.91586 0.372733C7.74407 0.485117 7.61118 0.644283 7.5333 0.829418L7.53311 0.82987L5.80478 4.91052L5.75741 5.02238L5.63631 5.03191L1.15745 5.38444C1.15723 5.38446 1.15702 5.38448 1.1568 5.3845C0.950487 5.40234 0.754621 5.47899 0.593538 5.60429C0.432338 5.72967 0.313262 5.89804 0.250386 6.08793C0.187526 6.27777 0.183399 6.48131 0.238474 6.67336C0.293548 6.86541 0.405589 7.03812 0.561409 7.16955L15.839 5.3845ZM5.62062 4.83252L7.34895 0.751869L5.62062 4.83252Z" stroke="#363636" stroke-width="0.4"/>
</svg>
