<svg width="33" height="33" viewBox="0 0 33 33" fill="none" xmlns="http://www.w3.org/2000/svg">
<g id="Trash">
<path id="Vector" d="M27.6895 6.5H22.6895V5.5C22.6895 4.70435 22.3734 3.94129 21.8108 3.37868C21.2482 2.81607 20.4851 2.5 19.6895 2.5H13.6895C12.8938 2.5 12.1307 2.81607 11.5681 3.37868C11.0055 3.94129 10.6895 4.70435 10.6895 5.5V6.5H5.68945C5.42424 6.5 5.16988 6.60536 4.98235 6.79289C4.79481 6.98043 4.68945 7.23478 4.68945 7.5C4.68945 7.76522 4.79481 8.01957 4.98235 8.20711C5.16988 8.39464 5.42424 8.5 5.68945 8.5H6.68945V26.5C6.68945 27.0304 6.90017 27.5391 7.27524 27.9142C7.65031 28.2893 8.15902 28.5 8.68945 28.5H24.6895C25.2199 28.5 25.7286 28.2893 26.1037 27.9142C26.4787 27.5391 26.6895 27.0304 26.6895 26.5V8.5H27.6895C27.9547 8.5 28.209 8.39464 28.3966 8.20711C28.5841 8.01957 28.6895 7.76522 28.6895 7.5C28.6895 7.23478 28.5841 6.98043 28.3966 6.79289C28.209 6.60536 27.9547 6.5 27.6895 6.5ZM12.6895 5.5C12.6895 5.23478 12.7948 4.98043 12.9823 4.79289C13.1699 4.60536 13.4242 4.5 13.6895 4.5H19.6895C19.9547 4.5 20.209 4.60536 20.3966 4.79289C20.5841 4.98043 20.6895 5.23478 20.6895 5.5V6.5H12.6895V5.5ZM24.6895 26.5H8.68945V8.5H24.6895V26.5ZM14.6895 13.5V21.5C14.6895 21.7652 14.5841 22.0196 14.3966 22.2071C14.209 22.3946 13.9547 22.5 13.6895 22.5C13.4242 22.5 13.1699 22.3946 12.9823 22.2071C12.7948 22.0196 12.6895 21.7652 12.6895 21.5V13.5C12.6895 13.2348 12.7948 12.9804 12.9823 12.7929C13.1699 12.6054 13.4242 12.5 13.6895 12.5C13.9547 12.5 14.209 12.6054 14.3966 12.7929C14.5841 12.9804 14.6895 13.2348 14.6895 13.5ZM20.6895 13.5V21.5C20.6895 21.7652 20.5841 22.0196 20.3966 22.2071C20.209 22.3946 19.9547 22.5 19.6895 22.5C19.4242 22.5 19.1699 22.3946 18.9823 22.2071C18.7948 22.0196 18.6895 21.7652 18.6895 21.5V13.5C18.6895 13.2348 18.7948 12.9804 18.9823 12.7929C19.1699 12.6054 19.4242 12.5 19.6895 12.5C19.9547 12.5 20.209 12.6054 20.3966 12.7929C20.5841 12.9804 20.6895 13.2348 20.6895 13.5Z" fill="#E10D0D"/>
</g>
</svg>
