<svg width="24" height="24" viewBox="0 0 24 24" fill="none" xmlns="http://www.w3.org/2000/svg">
<g id="OBJECTS" clip-path="url(#clip0_635_4145)">
<path id="Vector" d="M5.0346 16.3896C6.56537 16.5236 7.90857 16.1585 9.15128 15.2709C8.88331 15.2039 8.65553 15.157 8.43446 15.0866C7.60375 14.8254 7.02427 14.2727 6.66586 13.4889C6.55532 13.2477 6.57877 13.2276 6.84339 13.2309C7.11806 13.2343 7.39608 13.2745 7.71764 13.1539C7.2219 13.0099 6.82329 12.7921 6.48498 12.4773C5.9457 11.9748 5.62413 11.3552 5.56719 10.6115C5.54374 10.3101 5.58394 10.29 5.84856 10.4139C6.10983 10.5345 6.38115 10.6115 6.70941 10.6149C6.50508 10.3804 6.28401 10.2096 6.12657 9.98181C5.5002 9.07407 5.39301 8.11273 5.82511 7.09445C5.939 6.82313 5.98589 6.81308 6.18017 7.03415C7.13816 8.10938 8.28708 8.90324 9.65372 9.37553C10.2567 9.58321 10.873 9.72054 11.5061 9.78419C11.831 9.81768 11.8578 9.78419 11.8209 9.46597C11.6869 8.33045 12.3301 7.14469 13.3684 6.6054C14.4102 6.06276 15.7467 6.21685 16.5941 6.99396C16.7583 7.14469 16.9157 7.17819 17.1234 7.12124C17.5655 7.00066 17.9943 6.84322 18.3996 6.62885C18.4632 6.59535 18.5168 6.52836 18.634 6.57191C18.4398 7.17819 18.0546 7.64043 17.5689 8.03904C18.0479 7.98209 18.4967 7.84476 18.959 7.66388C18.969 7.82466 18.8752 7.90505 18.8082 7.98879C18.5235 8.35725 18.2053 8.69891 17.8301 8.97693C17.6526 9.10756 17.5957 9.25495 17.599 9.46932C17.6292 11.3786 17.0162 13.0802 15.874 14.5875C14.5174 16.3796 12.6985 17.3912 10.4744 17.6591C8.63544 17.8836 6.90703 17.5352 5.29587 16.6107C5.23893 16.5772 5.18198 16.5404 5.12504 16.5002C5.10494 16.4868 5.09154 16.4633 5.03125 16.393L5.0346 16.3896Z" fill="white"/>
<path id="Vector_2" d="M19.1062 0.669922H4.89379C2.56101 0.669922 0.669922 2.56101 0.669922 4.89379V19.1062C0.669922 21.439 2.56101 23.3301 4.89379 23.3301H19.1062C21.439 23.3301 23.3301 21.439 23.3301 19.1062V4.89379C23.3301 2.56101 21.439 0.669922 19.1062 0.669922Z" stroke="white" stroke-width="1.5" stroke-linecap="round" stroke-linejoin="round"/>
</g>
<defs>
<clipPath id="clip0_635_4145">
<rect width="24" height="24" fill="white"/>
</clipPath>
</defs>
</svg>
