<svg width="133" height="134" viewBox="0 0 133 134" fill="none" xmlns="http://www.w3.org/2000/svg">
<g id="fi_10263293" clip-path="url(#clip0_66_2719)">
<g id="Layer_2_00000136370521829315610600000014501142826183595675_">
<g id="cloud_upload">
<path id="Vector" d="M106.866 58.3031C106.087 58.2771 105.801 58.0174 105.619 57.264C103.671 48.1463 95.7742 40.5871 86.1109 41.5222C84.2665 41.2365 79.7206 43.3666 78.8115 41.9379C70.7847 29.4432 57.9523 23.5205 43.4054 26.5598C28.6767 29.4432 17.6886 42.5613 17.4029 57.1601C17.3769 58.7707 16.9613 59.8098 15.2468 60.0695C-1.19636 65.8883 -4.72917 89.5789 6.67454 101.658C11.8439 107.659 19.6368 109.347 27.248 108.931C40.2622 108.983 53.3025 108.957 66.3427 108.957V109.035C81.3572 109.061 96.3716 108.957 111.386 108.854C123.673 108.36 133.051 96.8264 132.765 86.9033C134.843 70.7199 123.413 57.264 106.866 58.3031ZM77.9283 73.6293H74.1617V92.5922C74.1617 95.034 72.1874 97.0082 69.7456 97.0082H63.2255C60.7837 97.0082 58.8095 95.034 58.8095 92.5922V73.6293H55.0689C52.6271 73.6293 50.6529 71.6551 50.6529 69.2133C50.6529 68.2781 50.9646 67.343 51.5361 66.5896L63.0177 51.1076C64.4724 49.1594 67.2259 48.7437 69.2001 50.1984C69.5638 50.4582 69.8755 50.7699 70.1353 51.1336L81.513 66.6156C82.0585 67.3689 82.3702 68.2781 82.3702 69.2133C82.3443 71.6551 80.37 73.6293 77.9283 73.6293Z" fill="#ED6538"/>
</g>
</g>
</g>
<defs>
<clipPath id="clip0_66_2719">
<rect width="133" height="133" fill="white" transform="translate(0 0.894775)"/>
</clipPath>
</defs>
</svg>
