<svg width="28" height="28" viewBox="0 0 28 28" fill="none" xmlns="http://www.w3.org/2000/svg">
<g id="User square 1">
<path id="Vector" d="M18.8125 13.125C18.8125 14.0768 18.5303 15.0073 18.0014 15.7987C17.4726 16.5901 16.721 17.2069 15.8417 17.5712C14.9623 17.9354 13.9947 18.0307 13.0611 17.845C12.1276 17.6593 11.2701 17.201 10.597 16.528C9.92401 15.8549 9.46566 14.9974 9.27997 14.0639C9.09428 13.1303 9.18958 12.1627 9.55383 11.2833C9.91808 10.404 10.5349 9.65236 11.3263 9.12355C12.1177 8.59475 13.0482 8.3125 14 8.3125C15.2764 8.3125 16.5004 8.81953 17.403 9.72205C18.3055 10.6246 18.8125 11.8486 18.8125 13.125ZM24.5 5.25L24.5 22.75C24.5 23.2141 24.3156 23.6592 23.9874 23.9874C23.6592 24.3156 23.2141 24.5 22.75 24.5L5.25 24.5C4.78587 24.5 4.34075 24.3156 4.01256 23.9874C3.68437 23.6592 3.5 23.2141 3.5 22.75L3.5 5.25C3.5 4.78587 3.68437 4.34075 4.01256 4.01256C4.34075 3.68437 4.78587 3.5 5.25 3.5L22.75 3.5C23.2141 3.5 23.6592 3.68437 23.9874 4.01256C24.3156 4.34075 24.5 4.78587 24.5 5.25ZM22.75 22.75L22.75 5.25L5.25 5.25L5.25 22.75H5.65141C6.17225 21.1066 7.16363 19.6521 8.50281 18.5664C8.7274 18.3856 8.95927 18.2171 9.19844 18.0611C9.27812 18.0091 9.3726 17.9845 9.46753 17.991C9.56247 17.9975 9.6527 18.0348 9.72453 18.0972C10.9128 19.123 12.4302 19.6873 14 19.6873C15.5698 19.6873 17.0872 19.123 18.2755 18.0972C18.3473 18.0348 18.4375 17.9975 18.5325 17.991C18.6274 17.9845 18.7219 18.0091 18.8016 18.0611C19.0407 18.2179 19.2726 18.3863 19.4972 18.5664C20.8364 19.6521 21.8277 21.1066 22.3486 22.75H22.75Z" fill="#363636"/>
</g>
</svg>
