<svg width="86" height="27" viewBox="0 0 86 27" fill="none" xmlns="http://www.w3.org/2000/svg">
<g id="Group 4">
<path id="Vector" d="M31.9043 25.4075L36.1904 1.29834H42.8873L38.7352 25.4075H31.9043Z" fill="#3C58BF"/>
<path id="Vector_2" d="M31.9043 25.4075L37.3958 1.29834H42.8873L38.7352 25.4075H31.9043Z" fill="#293688"/>
<path id="Vector_3" d="M62.9781 1.56614C61.6387 1.03039 59.4957 0.494629 56.8169 0.494629C50.1199 0.494629 45.2981 3.84312 45.2981 8.66494C45.2981 12.2813 48.6466 14.1565 51.3254 15.3619C54.0042 16.5674 54.8078 17.371 54.8078 18.4425C54.8078 20.0498 52.6648 20.8535 50.7896 20.8535C48.1108 20.8535 46.6375 20.4516 44.3605 19.5141L43.4229 19.1122L42.4854 24.6038C44.0926 25.2735 47.0393 25.9432 50.1199 25.9432C57.2187 25.9432 61.9066 22.5947 61.9066 17.505C61.9066 14.6922 60.1654 12.5492 56.1472 10.808C53.7363 9.60252 52.2629 8.93282 52.2629 7.72737C52.2629 6.65585 53.4684 5.58433 56.1472 5.58433C58.4242 5.58433 60.0314 5.98615 61.2369 6.52191L61.9066 6.78979L62.9781 1.56614Z" fill="#3C58BF"/>
<path id="Vector_4" d="M62.9781 1.56614C61.6387 1.03039 59.4957 0.494629 56.8169 0.494629C50.1199 0.494629 46.5035 3.84312 46.5035 8.66494C46.5035 12.2813 48.6466 14.1565 51.3254 15.3619C54.0042 16.5674 54.8078 17.371 54.8078 18.4425C54.8078 20.0498 52.6648 20.8535 50.7896 20.8535C48.1108 20.8535 46.6375 20.4516 44.3605 19.5141L43.4229 19.1122L42.4854 24.6038C44.0926 25.2735 47.0393 25.9432 50.1199 25.9432C57.2187 25.9432 61.9066 22.5947 61.9066 17.505C61.9066 14.6922 60.1654 12.5492 56.1472 10.808C53.7363 9.60252 52.2629 8.93282 52.2629 7.72737C52.2629 6.65585 53.4684 5.58433 56.1472 5.58433C58.4242 5.58433 60.0314 5.98615 61.2369 6.52191L61.9066 6.78979L62.9781 1.56614Z" fill="#293688"/>
<path id="Vector_5" d="M74.4971 1.29834C72.8899 1.29834 71.6844 1.43228 71.0147 3.03956L60.9692 25.4075H68.202L69.5414 21.3893H78.1135L78.9172 25.4075H85.3463L79.7208 1.29834H74.4971ZM71.4165 17.3711C71.8183 16.1656 74.0953 10.2723 74.0953 10.2723C74.0953 10.2723 74.6311 8.79896 75.0329 7.86138L75.4347 10.1384C75.4347 10.1384 76.7741 16.1656 77.042 17.505H71.4165V17.3711Z" fill="#3C58BF"/>
<path id="Vector_6" d="M76.1044 1.29834C74.4971 1.29834 73.2917 1.43228 72.622 3.03956L60.9692 25.4075H68.202L69.5414 21.3893H78.1135L78.9172 25.4075H85.3463L79.7208 1.29834H76.1044ZM71.4165 17.3711C71.9523 16.0317 74.0953 10.2723 74.0953 10.2723C74.0953 10.2723 74.6311 8.79896 75.0329 7.86138L75.4347 10.1384C75.4347 10.1384 76.7741 16.1656 77.042 17.505H71.4165V17.3711Z" fill="#293688"/>
<path id="Vector_7" d="M19.5821 18.1746L18.9124 14.6922C17.7069 10.674 13.8227 6.25396 9.53662 4.11092L15.5639 25.5413H22.7966L33.6458 1.43213H26.413L19.5821 18.1746Z" fill="#3C58BF"/>
<path id="Vector_8" d="M19.5821 18.1746L18.9124 14.6922C17.7069 10.674 13.8227 6.25396 9.53662 4.11092L15.5639 25.5413H22.7966L33.6458 1.43213H27.7524L19.5821 18.1746Z" fill="#293688"/>
<path id="Vector_9" d="M0.964355 1.29834L2.16981 1.56622C10.7419 3.57531 16.6353 8.66502 18.9123 14.6923L16.5014 3.30743C16.0995 1.70016 14.8941 1.29834 13.4207 1.29834H0.964355Z" fill="#FFBC00"/>
<path id="Vector_10" d="M0.964355 1.29834C9.53649 3.30743 16.6353 8.53108 18.9123 14.5584L16.6353 5.04865C16.2335 3.44138 14.8941 2.5038 13.4207 2.5038L0.964355 1.29834Z" fill="#F7981D"/>
<path id="Vector_11" d="M0.964355 1.29834C9.53649 3.30743 16.6353 8.53108 18.9123 14.5584L17.305 9.33472C16.9032 7.72744 16.3674 6.12017 14.4923 5.45047L0.964355 1.29834Z" fill="#ED7C00"/>
<g id="Group">
<path id="Vector_12" d="M26.2789 17.371L21.725 12.8171L19.5819 17.9068L19.0462 14.5583C17.8407 10.5401 13.9565 6.12008 9.67041 3.97705L15.6977 25.4074H22.9304L26.2789 17.371Z" fill="#051244"/>
<path id="Vector_13" d="M38.7352 25.4075L32.9758 19.5142L31.9043 25.4075H38.7352Z" fill="#051244"/>
<path id="Vector_14" d="M54.1381 17.103C54.6739 17.6388 54.9417 18.0406 54.8078 18.5764C54.8078 20.1836 52.6648 20.9873 50.7896 20.9873C48.1108 20.9873 46.6375 20.5855 44.3605 19.6479L43.4229 19.2461L42.4854 24.7376C44.0926 25.4073 47.0393 26.077 50.1199 26.077C54.406 26.077 57.8884 24.8715 59.8975 22.7285L54.1381 17.103Z" fill="#051244"/>
<path id="Vector_15" d="M61.9067 25.4074H68.2019L69.5413 21.3892H78.1134L78.9171 25.4074H85.3462L83.0692 15.6298L75.0328 7.86133L75.4346 10.0044C75.4346 10.0044 76.774 16.0316 77.0419 17.371H71.4164C71.9522 16.0316 74.0952 10.2722 74.0952 10.2722C74.0952 10.2722 74.631 8.79891 75.0328 7.86133" fill="#051244"/>
</g>
</g>
</svg>
