<svg width="26" height="25" viewBox="0 0 26 25" fill="none" xmlns="http://www.w3.org/2000/svg">
<path d="M20.1082 1H5.89574C3.56296 1 1.67188 2.89109 1.67188 5.22387V19.4363C1.67188 21.7691 3.56296 23.6602 5.89574 23.6602H20.1082C22.4409 23.6602 24.332 21.7691 24.332 19.4363V5.22387C24.332 2.89109 22.4409 1 20.1082 1Z" stroke="#363636" stroke-width="1.5" stroke-linecap="round" stroke-linejoin="round"/>
<path d="M14.7036 12.9575L15.9614 13.5853C15.9018 13.8832 15.7406 14.1512 15.5055 14.3436C15.2703 14.536 14.9757 14.6408 14.6719 14.6402C13.6279 14.6391 12.6271 14.2239 11.8889 13.4857C11.1507 12.7475 10.7355 11.7467 10.7344 10.7027C10.7343 10.3993 10.8394 10.1052 11.0317 9.87048C11.224 9.63577 11.4917 9.47495 11.7893 9.4154L12.4171 10.6732L11.8828 11.4684C11.8429 11.5283 11.8184 11.5971 11.8114 11.6687C11.8044 11.7404 11.8152 11.8126 11.8429 11.8791C12.1559 12.623 12.7478 13.2149 13.4917 13.5279C13.5584 13.5568 13.6312 13.5686 13.7036 13.5623C13.7759 13.556 13.8456 13.5318 13.9062 13.4918L14.7036 12.9575ZM19.0469 12.0152C19.0471 12.9972 18.7931 13.9624 18.3096 14.8171C17.826 15.6717 17.1295 16.3866 16.2877 16.8922C15.446 17.3978 14.4876 17.6768 13.506 17.7021C12.5244 17.7274 11.553 17.4982 10.6862 17.0367L8.82414 17.6574C8.66997 17.7088 8.50452 17.7162 8.34635 17.6789C8.18818 17.6416 8.04352 17.5609 7.92861 17.446C7.81369 17.3311 7.73305 17.1864 7.69572 17.0283C7.65839 16.8701 7.66585 16.7047 7.71727 16.5505L8.33797 14.6884C7.93227 13.9256 7.70567 13.0804 7.67537 12.217C7.64508 11.3536 7.81188 10.4946 8.16312 9.70532C8.51435 8.91599 9.0408 8.21706 9.70249 7.66157C10.3642 7.10608 11.1437 6.70863 11.9819 6.4994C12.8202 6.29016 13.695 6.27464 14.5402 6.454C15.3853 6.63337 16.1784 7.00291 16.8594 7.53457C17.5404 8.06624 18.0913 8.74606 18.4703 9.52242C18.8493 10.2988 19.0465 11.1513 19.0469 12.0152ZM16.8594 13.3277C16.8594 13.2465 16.8368 13.1668 16.7942 13.0976C16.7515 13.0285 16.6903 12.9726 16.6177 12.9362L14.8677 12.0612C14.7988 12.0269 14.722 12.0113 14.6452 12.0161C14.5684 12.0209 14.4942 12.0459 14.4302 12.0885L13.6268 12.6245C13.258 12.4217 12.9545 12.1182 12.7518 11.7495L13.2877 10.9461C13.3304 10.882 13.3554 10.8078 13.3602 10.731C13.365 10.6542 13.3494 10.5775 13.3151 10.5086L12.4401 8.7586C12.4038 8.68536 12.3478 8.62374 12.2783 8.58073C12.2088 8.53772 12.1286 8.51503 12.0469 8.51525C11.4667 8.51525 10.9103 8.74571 10.5001 9.15595C10.0898 9.56619 9.85937 10.1226 9.85937 10.7027C9.86082 11.9787 10.3683 13.2019 11.2705 14.1041C12.1727 15.0063 13.396 15.5138 14.6719 15.5152C14.9591 15.5152 15.2436 15.4587 15.509 15.3487C15.7744 15.2388 16.0155 15.0777 16.2187 14.8745C16.4218 14.6714 16.5829 14.4303 16.6929 14.1649C16.8028 13.8995 16.8594 13.615 16.8594 13.3277Z" fill="#363636"/>
</svg>
