<svg width="262" height="277" viewBox="0 0 262 277" fill="none" xmlns="http://www.w3.org/2000/svg">
<circle cx="131" cy="144.568" r="106" fill="#5A2979" stroke="white" stroke-width="2"/>
<path d="M153.584 18.5395C160.428 19.8186 167.132 21.6033 173.653 23.9109C174.672 24.2794 175.819 23.7396 176.172 22.7121C176.538 21.6739 176.007 20.5365 174.974 20.1713C168.267 17.8032 161.374 15.943 154.308 14.6427C136.49 11.3398 118.386 11.6506 100.541 15.5648C84.8882 18.9983 70.1579 25.0718 56.7484 33.6047C55.8294 34.1879 55.5505 35.4095 56.1448 36.3382C56.721 37.2554 57.9532 37.5302 58.8854 36.9364C71.9001 28.6692 86.1862 22.7787 101.392 19.4433C118.73 15.6403 136.274 15.3432 153.584 18.5395Z" fill="white"/>
<path d="M227.792 57.1886C227.083 56.4131 225.873 56.354 225.09 57.0704C224.308 57.7868 224.249 58.998 224.957 59.7883C234.716 70.4825 242.512 82.6243 248.166 95.9847C254.795 111.679 258.147 128.326 258.147 145.505C258.147 162.676 254.795 179.33 248.166 195.025C241.759 210.172 232.605 223.776 220.912 235.46C209.234 247.129 195.651 256.302 180.503 262.713C164.809 269.36 148.17 272.72 131 272.72C113.844 272.72 97.1907 269.352 81.4967 262.713C66.3489 256.31 52.7661 247.137 41.0879 235.46C29.3949 223.776 20.2413 210.172 13.8485 195.025C7.20478 179.33 3.83861 162.669 3.83861 145.505C3.83861 129.833 6.65851 114.545 12.2097 100.032C12.5936 99.0349 12.0916 97.9271 11.1024 97.5504C10.1133 97.1664 8.99121 97.6612 8.62211 98.6509C2.89372 113.607 0 129.375 0 145.505C0 163.178 3.45475 180.357 10.3052 196.524C16.9047 212.129 26.3535 226.147 38.3713 238.178C50.3892 250.202 64.4001 259.655 80.0055 266.258C96.172 273.097 113.328 276.568 131 276.568C148.672 276.568 165.843 273.097 181.994 266.258C197.585 259.663 211.626 250.202 223.629 238.178C235.661 226.147 245.095 212.122 251.695 196.524C258.53 180.357 262 163.178 262 145.505C262 127.824 258.53 110.652 251.695 94.4854C245.878 80.7336 237.846 68.2078 227.792 57.1886Z" fill="white"/>
</svg>
